{
.appVersion = "895";
copyright = "Copyright 2016 Jeremy Tribby. SIL OFL License v1.1.";
date = "2016-07-12 00:27:02 +0000";
designer = "Jeremy Tribby";
designerURL = "http://tribby.com/";
familyName = Barlow;
featurePrefixes = (
{
automatic = 1;
code = "languagesystem DFLT dflt;\012";
name = Languagesystems;
}
);
features = (
{
automatic = 1;
code = "sub hyphen hyphen by hyphen_hyphen.liga;\012";
name = liga;
}
);
fontMaster = (
{
alignmentZones = (
"{800, 16}",
"{700, 10}",
"{500, 6}",
"{0, -10}",
"{-200, -3}"
);
ascender = 800;
capHeight = 700;
customParameters = (
{
name = paramArea;
value = "388";
},
{
name = paramDepth;
value = "8";
},
{
name = paramOver;
value = "2";
}
);
descender = -200;
horizontalStems = (
23,
22
);
id = "262880E7-CFE1-4BDA-902E-E24798F3240A";
userData = {
GSCornerRadius = 8;
GSOffsetHorizontal = 11;
GSOffsetMakeStroke = 1;
GSOffsetVertical = 10;
noodleExtremesAndInflections = 1;
noodleRemoveOverlap = 1;
noodleThickness = "22.0";
};
verticalStems = (
22,
21
);
visible = 1;
weight = Light;
weightValue = 23;
xHeight = 500;
},
{
alignmentZones = (
"{800, 16}",
"{700, 11}",
"{500, 4}",
"{0, -11}",
"{-200, -10}"
);
ascender = 800;
capHeight = 700;
customParameters = (
{
name = paramArea;
value = "220";
},
{
name = paramDepth;
value = "20";
},
{
name = paramOver;
value = "2";
}
);
descender = -200;
horizontalStems = (
198,
208
);
id = "4F25946F-63AC-42D6-8D55-01CF6A99025B";
userData = {
GSCornerRadius = 12;
GSOffsetHorizontal = 104;
GSOffsetMakeStroke = 1;
GSOffsetVertical = 102;
noodleExtremesAndInflections = 1;
noodleRemoveOverlap = 1;
noodleThickness = "50.0";
};
verticalStems = (
202,
168
);
visible = 1;
weight = Bold;
weightValue = 202;
xHeight = 500;
}
);
glyphs = (
{
color = 1;
glyphname = A;
lastChange = "2016-10-18 03:01:12 +0000";
layers = (
{
layerId = "262880E7-CFE1-4BDA-902E-E24798F3240A";
paths = (
{
closed = 1;
nodes = (
"85 0 LINE",
"239 656 LINE",
"393 0 LINE",
"415 0 LINE",
"250 700 LINE",
"228 700 LINE",
"63 0 LINE"
);
},
{
closed = 1;
nodes = (
"362 145 LINE",
"362 166 LINE",
"115 166 LINE",
"115 145 LINE"
);
}
);
width = 478;
},
{
layerId = "4F25946F-63AC-42D6-8D55-01CF6A99025B";
paths = (
{
closed = 1;
nodes = (
"218 0 LINE",
"313 450 LINE",
"408 0 LINE",
"631 0 LINE",
"429 700 LINE",
"197 700 LINE",
"-5 0 LINE"
);
},
{
closed = 1;
nodes = (
"463 75 LINE",
"463 210 LINE",
"163 210 LINE",
"163 75 LINE"
);
}
);
width = 626;
},
{
associatedMasterId = "262880E7-CFE1-4BDA-902E-E24798F3240A";
layerId = "09B97E43-C149-48A2-81D6-63259EF6020F";
name = "DemiBold{119,100}";
paths = (
{
closed = 1;
nodes = (
"153 0 LINE",
"254 527 LINE",
"355 0 LINE",
"486 0 LINE",
"321 700 LINE",
"187 700 LINE",
"22 0 LINE"
);
},
{
closed = 1;
nodes = (
"391 101 LINE",
"391 212 LINE",
"116 212 LINE",
"116 101 LINE"
);
}
);
width = 508;
}
);
unicode = 0041;
},
{
color = 1;
glyphname = B;
lastChange = "2016-10-18 03:01:12 +0000";
layers = (
{
layerId = "262880E7-CFE1-4BDA-902E-E24798F3240A";
paths = (
{
closed = 1;
nodes = (
"243 351 LINE SMOOTH",
"358 351 OFFCURVE",
"429 415 OFFCURVE",
"429 523 CURVE SMOOTH",
"429 631 OFFCURVE",
"358 700 OFFCURVE",
"243 700 CURVE SMOOTH",
"97 700 LINE",
"97 351 LINE"
);
},
{
closed = 1;
nodes = (
"243 0 LINE SMOOTH",
"358 0 OFFCURVE",
"429 71 OFFCURVE",
"429 186 CURVE SMOOTH",
"429 301 OFFCURVE",
"358 372 OFFCURVE",
"243 372 CURVE SMOOTH",
"97 372 LINE",
"97 0 LINE"
);
},
{
closed = 1;
nodes = (
"119 351 LINE",
"243 351 LINE SMOOTH",
"345 351 OFFCURVE",
"407 288 OFFCURVE",
"407 186 CURVE SMOOTH",
"407 84 OFFCURVE",
"345 22 OFFCURVE",
"243 22 CURVE SMOOTH",
"119 22 LINE"
);
},
{
closed = 1;
nodes = (
"119 679 LINE",
"243 679 LINE SMOOTH",
"345 679 OFFCURVE",
"407 618 OFFCURVE",
"407 523 CURVE SMOOTH",
"407 428 OFFCURVE",
"345 372 OFFCURVE",
"243 372 CURVE SMOOTH",
"119 372 LINE"
);
}
);
width = 506;
},
{
layerId = "4F25946F-63AC-42D6-8D55-01CF6A99025B";
paths = (
{
closed = 1;
nodes = (
"298 308 LINE SMOOTH",
"444 308 OFFCURVE",
"542 386 OFFCURVE",
"542 502 CURVE SMOOTH",
"542 621 OFFCURVE",
"442 700 OFFCURVE",
"293 700 CURVE SMOOTH",
"45 700 LINE",
"45 308 LINE"
);
},
{
closed = 1;
nodes = (
"322 0 LINE SMOOTH",
"467 0 OFFCURVE",
"563 82 OFFCURVE",
"563 205 CURVE SMOOTH",
"563 338 OFFCURVE",
"457 426 OFFCURVE",
"297 426 CURVE",
"45 426 LINE",
"45 0 LINE"
);
},
{
closed = 1;
nodes = (
"238 286 LINE",
"303 286 LINE SMOOTH",
"334 286 OFFCURVE",
"354 266 OFFCURVE",
"354 235 CURVE SMOOTH",
"354 203 OFFCURVE",
"333 182 OFFCURVE",
"302 182 CURVE SMOOTH",
"238 182 LINE"
);
},
{
closed = 1;
nodes = (
"238 536 LINE",
"297 536 LINE",
"326 536 OFFCURVE",
"346 517 OFFCURVE",
"346 489 CURVE SMOOTH",
"346 462 OFFCURVE",
"326 444 OFFCURVE",
"297 444 CURVE",
"238 444 LINE"
);
}
);
width = 575;
}
);
unicode = 0042;
},
{
color = 1;
glyphname = C;
lastChange = "2016-10-18 03:01:13 +0000";
layers = (
{
layerId = "262880E7-CFE1-4BDA-902E-E24798F3240A";
paths = (
{
closed = 1;
nodes = (
"349 -9 OFFCURVE",
"411 50 OFFCURVE",
"411 150 CURVE SMOOTH",
"411 152 LINE",
"389 152 LINE",
"389 150 LINE SMOOTH",
"389 64 OFFCURVE",
"337 11 OFFCURVE",
"250 11 CURVE SMOOTH",
"163 11 OFFCURVE",
"111 64 OFFCURVE",
"111 150 CURVE SMOOTH",
"111 550 LINE SMOOTH",
"111 637 OFFCURVE",
"165 690 OFFCURVE",
"250 690 CURVE SMOOTH",
"335 690 OFFCURVE",
"389 637 OFFCURVE",
"389 550 CURVE SMOOTH",
"389 548 LINE",
"411 548 LINE",
"411 550 LINE SMOOTH",
"411 650 OFFCURVE",
"349 709 OFFCURVE",
"250 709 CURVE SMOOTH",
"151 709 OFFCURVE",
"89 650 OFFCURVE",
"89 550 CURVE SMOOTH",
"89 150 LINE SMOOTH",
"89 50 OFFCURVE",
"151 -9 OFFCURVE",
"250 -9 CURVE SMOOTH"
);
}
);
width = 479;
},
{
layerId = "4F25946F-63AC-42D6-8D55-01CF6A99025B";
paths = (
{
closed = 1;
nodes = (
"439 -10 OFFCURVE",
"541 67 OFFCURVE",
"541 183 CURVE SMOOTH",
"541 278 LINE",
"329 278 LINE",
"329 223 LINE SMOOTH",
"329 196 OFFCURVE",
"311 178 OFFCURVE",
"285 178 CURVE SMOOTH",
"259 178 OFFCURVE",
"241 196 OFFCURVE",
"241 223 CURVE SMOOTH",
"241 477 LINE SMOOTH",
"241 504 OFFCURVE",
"259 522 OFFCURVE",
"285 522 CURVE SMOOTH",
"311 522 OFFCURVE",
"329 504 OFFCURVE",
"329 477 CURVE SMOOTH",
"329 422 LINE",
"541 422 LINE",
"541 517 LINE SMOOTH",
"541 633 OFFCURVE",
"439 710 OFFCURVE",
"285 710 CURVE SMOOTH",
"131 710 OFFCURVE",
"29 633 OFFCURVE",
"29 517 CURVE SMOOTH",
"29 183 LINE SMOOTH",
"29 67 OFFCURVE",
"131 -10 OFFCURVE",
"285 -10 CURVE SMOOTH"
);
}
);
width = 560;
}
);
unicode = 0043;
},
{
color = 1;
glyphname = D;
lastChange = "2016-10-18 03:14:04 +0000";
layers = (
{
layerId = "262880E7-CFE1-4BDA-902E-E24798F3240A";
paths = (
{
closed = 1;
nodes = (
"258 0 LINE SMOOTH",
"358 0 OFFCURVE",
"419 61 OFFCURVE",
"419 161 CURVE SMOOTH",
"419 539 LINE SMOOTH",
"419 639 OFFCURVE",
"358 700 OFFCURVE",
"258 700 CURVE SMOOTH",
"97 700 LINE",
"97 0 LINE"
);
},
{
closed = 1;
nodes = (
"119 679 LINE",
"258 679 LINE SMOOTH",
"344 679 OFFCURVE",
"397 626 OFFCURVE",
"397 539 CURVE SMOOTH",
"397 161 LINE SMOOTH",
"397 75 OFFCURVE",
"344 22 OFFCURVE",
"258 22 CURVE SMOOTH",
"119 22 LINE"
);
}
);
width = 507;
},
{
layerId = "4F25946F-63AC-42D6-8D55-01CF6A99025B";
paths = (
{
closed = 1;
nodes = (
"332 0 LINE SMOOTH",
"463 0 OFFCURVE",
"544 81 OFFCURVE",
"544 213 CURVE SMOOTH",
"544 487 LINE SMOOTH",
"544 619 OFFCURVE",
"463 700 OFFCURVE",
"332 700 CURVE SMOOTH",
"45 700 LINE",
"45 0 LINE"
);
},
{
closed = 1;
nodes = (
"253 526 LINE",
"288 526 LINE SMOOTH",
"314 526 OFFCURVE",
"332 508 OFFCURVE",
"332 481 CURVE SMOOTH",
"332 219 LINE SMOOTH",
"332 192 OFFCURVE",
"314 174 OFFCURVE",
"288 174 CURVE SMOOTH",
"253 174 LINE"
);
}
);
width = 573;
},
{
associatedMasterId = "262880E7-CFE1-4BDA-902E-E24798F3240A";
layerId = "5FA87B53-3B99-492D-B797-6707203108CA";
name = "DemiBold{119,100}";
paths = (
{
closed = 1;
nodes = (
"298 0 LINE SMOOTH",
"415 0 OFFCURVE",
"486 72 OFFCURVE",
"486 189 CURVE SMOOTH",
"486 511 LINE SMOOTH",
"486 628 OFFCURVE",
"415 700 OFFCURVE",
"298 700 CURVE SMOOTH",
"69 700 LINE",
"69 0 LINE"
);
},
{
closed = 1;
nodes = (
"191 589 LINE",
"268 589 LINE SMOOTH",
"333 589 OFFCURVE",
"373 555 OFFCURVE",
"373 500 CURVE SMOOTH",
"373 194 LINE SMOOTH",
"373 139 OFFCURVE",
"333 106 OFFCURVE",
"268 106 CURVE SMOOTH",
"191 106 LINE"
);
}
);
width = 542;
}
);
unicode = 0044;
},
{
color = 1;
glyphname = E;
lastChange = "2016-10-18 03:01:12 +0000";
layers = (
{
layerId = "262880E7-CFE1-4BDA-902E-E24798F3240A";
paths = (
{
closed = 1;
nodes = (
"418 0 LINE",
"418 22 LINE",
"119 22 LINE",
"119 679 LINE",
"418 679 LINE",
"418 700 LINE",
"97 700 LINE",
"97 0 LINE"
);
},
{
closed = 1;
nodes = (
"313 340 LINE",
"313 361 LINE",
"108 361 LINE",
"108 340 LINE"
);
}
);
width = 480;
},
{
layerId = "4F25946F-63AC-42D6-8D55-01CF6A99025B";
paths = (
{
closed = 1;
nodes = (
"507 0 LINE",
"507 188 LINE",
"253 188 LINE",
"253 512 LINE",
"507 512 LINE",
"507 700 LINE",
"45 700 LINE",
"45 0 LINE"
);
},
{
closed = 1;
nodes = (
"397 266 LINE",
"397 434 LINE",
"167 434 LINE",
"167 266 LINE"
);
}
);
width = 528;
},
{
associatedMasterId = "262880E7-CFE1-4BDA-902E-E24798F3240A";
layerId = "DE3E8A9A-5DAD-493A-9E98-F56387BAB1C1";
name = "DemiBold{119,100}";
paths = (
{
closed = 1;
nodes = (
"494 0 LINE",
"494 111 LINE",
"229 111 LINE",
"229 589 LINE",
"494 589 LINE",
"494 700 LINE",
"105 700 LINE",
"105 0 LINE"
);
},
{
closed = 1;
nodes = (
"386 300 LINE",
"386 400 LINE",
"177 400 LINE",
"177 300 LINE"
);
}
);
width = 559;
}
);
unicode = 0045;
},
{
color = 1;
glyphname = F;
lastChange = "2016-10-18 03:01:12 +0000";
layers = (
{
layerId = "262880E7-CFE1-4BDA-902E-E24798F3240A";
paths = (
{
closed = 1;
nodes = (
"119 0 LINE",
"119 679 LINE",
"418 679 LINE",
"418 700 LINE",
"97 700 LINE",
"97 0 LINE"
);
},
{
closed = 1;
nodes = (
"313 340 LINE",
"313 361 LINE",
"108 361 LINE",
"108 340 LINE"
);
}
);
width = 478;
},
{
layerId = "4F25946F-63AC-42D6-8D55-01CF6A99025B";
paths = (
{
closed = 1;
nodes = (
"253 0 LINE",
"253 512 LINE",
"521 512 LINE",
"521 700 LINE",
"45 700 LINE",
"45 0 LINE"
);
},
{
closed = 1;
nodes = (
"409 266 LINE",
"409 434 LINE",
"166 434 LINE",
"166 266 LINE"
);
}
);
width = 525;
},
{
associatedMasterId = "262880E7-CFE1-4BDA-902E-E24798F3240A";
layerId = "E70C252C-4698-4A26-900C-4F3FD049D2BA";
name = "DemiBold{119,100}";
paths = (
{
closed = 1;
nodes = (
"232 0 LINE",
"232 589 LINE",
"493 589 LINE",
"493 700 LINE",
"106 700 LINE",
"106 0 LINE"
);
},
{
closed = 1;
nodes = (
"385 300 LINE",
"385 400 LINE",
"180 400 LINE",
"180 300 LINE"
);
}
);
width = 544;
}
);
unicode = 0046;
},
{
color = 1;
glyphname = G;
lastChange = "2016-10-18 03:01:12 +0000";
layers = (
{
layerId = "262880E7-CFE1-4BDA-902E-E24798F3240A";
paths = (
{
closed = 1;
nodes = (
"349 -9 OFFCURVE",
"411 51 OFFCURVE",
"411 150 CURVE",
"411 361 LINE",
"250 361 LINE",
"250 340 LINE",
"389 340 LINE",
"389 150 LINE",
"389 63 OFFCURVE",
"337 11 OFFCURVE",
"250 11 CURVE SMOOTH",
"163 11 OFFCURVE",
"111 63 OFFCURVE",
"111 150 CURVE",
"111 550 LINE",
"111 637 OFFCURVE",
"163 690 OFFCURVE",
"250 690 CURVE SMOOTH",
"337 690 OFFCURVE",
"389 637 OFFCURVE",
"389 550 CURVE",
"411 550 LINE",
"411 649 OFFCURVE",
"349 709 OFFCURVE",
"250 709 CURVE SMOOTH",
"151 709 OFFCURVE",
"89 649 OFFCURVE",
"89 550 CURVE",
"89 150 LINE",
"89 51 OFFCURVE",
"151 -9 OFFCURVE",
"250 -9 CURVE SMOOTH"
);
}
);
width = 490;
},
{
layerId = "4F25946F-63AC-42D6-8D55-01CF6A99025B";
paths = (
{
closed = 1;
nodes = (
"434 -10 OFFCURVE",
"536 88 OFFCURVE",
"536 234 CURVE SMOOTH",
"536 400 LINE",
"280 400 LINE",
"280 270 LINE",
"324 270 LINE",
"324 234 LINE SMOOTH",
"324 200 OFFCURVE",
"306 178 OFFCURVE",
"280 178 CURVE SMOOTH",
"254 178 OFFCURVE",
"236 200 OFFCURVE",
"236 234 CURVE SMOOTH",
"236 466 LINE SMOOTH",
"236 500 OFFCURVE",
"254 522 OFFCURVE",
"280 522 CURVE SMOOTH",
"306 522 OFFCURVE",
"324 500 OFFCURVE",
"324 466 CURVE",
"536 466 LINE",
"536 612 OFFCURVE",
"434 710 OFFCURVE",
"280 710 CURVE SMOOTH",
"126 710 OFFCURVE",
"24 612 OFFCURVE",
"24 466 CURVE SMOOTH",
"24 234 LINE SMOOTH",
"24 88 OFFCURVE",
"126 -10 OFFCURVE",
"280 -10 CURVE SMOOTH"
);
}
);
width = 557;
},
{
associatedMasterId = "262880E7-CFE1-4BDA-902E-E24798F3240A";
layerId = "4BB53C67-4989-441E-8A0D-7E4F5FC64094";
name = "Medium {91, 100}";
paths = (
{
closed = 1;
nodes = (
"426 -9 OFFCURVE",
"504 65 OFFCURVE",
"504 182 CURVE",
"504 376 LINE",
"307 376 LINE",
"307 290 LINE",
"410 290 LINE",
"410 182 LINE",
"410 115 OFFCURVE",
"370 74 OFFCURVE",
"307 74 CURVE SMOOTH",
"243 74 OFFCURVE",
"204 115 OFFCURVE",
"204 182 CURVE",
"204 518 LINE",
"204 585 OFFCURVE",
"243 626 OFFCURVE",
"307 626 CURVE SMOOTH",
"370 626 OFFCURVE",
"410 585 OFFCURVE",
"410 518 CURVE",
"504 518 LINE",
"504 635 OFFCURVE",
"426 709 OFFCURVE",
"307 709 CURVE SMOOTH",
"187 709 OFFCURVE",
"110 635 OFFCURVE",
"110 518 CURVE",
"110 182 LINE",
"110 65 OFFCURVE",
"187 -9 OFFCURVE",
"307 -9 CURVE SMOOTH"
);
}
);
width = 602;
}
);
unicode = 0047;
},
{
color = 1;
glyphname = H;
lastChange = "2016-10-18 03:01:12 +0000";
layers = (
{
layerId = "262880E7-CFE1-4BDA-902E-E24798F3240A";
paths = (
{
closed = 1;
nodes = (
"419 0 LINE",
"419 700 LINE",
"397 700 LINE",
"397 0 LINE"
);
},
{
closed = 1;
nodes = (
"119 0 LINE",
"119 700 LINE",
"97 700 LINE",
"97 0 LINE"
);
},
{
closed = 1;
nodes = (
"402 340 LINE",
"402 361 LINE",
"114 361 LINE",
"114 340 LINE"
);
}
);
width = 516;
},
{
layerId = "4F25946F-63AC-42D6-8D55-01CF6A99025B";
paths = (
{
closed = 1;
nodes = (
"553 0 LINE",
"553 700 LINE",
"343 700 LINE",
"343 0 LINE"
);
},
{
closed = 1;
nodes = (
"255 0 LINE",
"255 700 LINE",
"45 700 LINE",
"45 0 LINE"
);
},
{
closed = 1;
nodes = (
"359 246 LINE",
"359 434 LINE",
"239 434 LINE",
"239 246 LINE"
);
}
);
width = 598;
}
);
unicode = 0048;
},
{
color = 1;
glyphname = I;
lastChange = "2016-10-18 03:01:13 +0000";
layers = (
{
layerId = "262880E7-CFE1-4BDA-902E-E24798F3240A";
paths = (
{
closed = 1;
nodes = (
"119 0 LINE",
"119 700 LINE",
"97 700 LINE",
"97 0 LINE"
);
}
);
width = 216;
},
{
layerId = "4F25946F-63AC-42D6-8D55-01CF6A99025B";
paths = (
{
closed = 1;
nodes = (
"247 0 LINE",
"247 700 LINE",
"45 700 LINE",
"45 0 LINE"
);
}
);
width = 292;
}
);
unicode = 0049;
},
{
color = 1;
glyphname = J;
lastChange = "2016-10-18 03:01:13 +0000";
layers = (
{
layerId = "262880E7-CFE1-4BDA-902E-E24798F3240A";
paths = (
{
closed = 1;
nodes = (
"322 -11 OFFCURVE",
"382 50 OFFCURVE",
"382 150 CURVE SMOOTH",
"382 700 LINE",
"360 700 LINE",
"360 150 LINE",
"360 64 OFFCURVE",
"308 11 OFFCURVE",
"224 11 CURVE SMOOTH",
"140 11 OFFCURVE",
"88 64 OFFCURVE",
"88 150 CURVE SMOOTH",
"88 195 LINE",
"66 195 LINE",
"66 150 LINE SMOOTH",
"66 50 OFFCURVE",
"126 -11 OFFCURVE",
"224 -11 CURVE SMOOTH"
);
}
);
width = 475;
},
{
layerId = "4F25946F-63AC-42D6-8D55-01CF6A99025B";
paths = (
{
closed = 1;
nodes = (
"404 -10 OFFCURVE",
"504 88 OFFCURVE",
"504 235 CURVE",
"499 702 LINE",
"287 700 LINE",
"292 233 LINE",
"292 200 OFFCURVE",
"276 178 OFFCURVE",
"253 178 CURVE SMOOTH",
"230 178 OFFCURVE",
"214 200 OFFCURVE",
"214 234 CURVE SMOOTH",
"214 290 LINE",
"2 290 LINE",
"2 234 LINE SMOOTH",
"2 88 OFFCURVE",
"102 -10 OFFCURVE",
"253 -10 CURVE SMOOTH"
);
}
);
width = 537;
}
);
unicode = 004A;
},
{
color = 1;
glyphname = K;
lastChange = "2016-10-18 03:01:13 +0000";
layers = (
{
layerId = "262880E7-CFE1-4BDA-902E-E24798F3240A";
paths = (
{
closed = 1;
nodes = (
"429 0 LINE",
"133 350 LINE",
"429 700 LINE",
"403 700 LINE",
"105 350 LINE",
"403 0 LINE"
);
},
{
closed = 1;
nodes = (
"119 0 LINE",
"119 700 LINE",
"97 700 LINE",
"97 0 LINE"
);
}
);
width = 490;
},
{
layerId = "4F25946F-63AC-42D6-8D55-01CF6A99025B";
paths = (
{
closed = 1;
nodes = (
"576 0 LINE",
"401 350 LINE",
"573 700 LINE",
"323 700 LINE",
"183 350 LINE",
"323 0 LINE"
);
},
{
closed = 1;
nodes = (
"253 0 LINE",
"253 700 LINE",
"45 700 LINE",
"45 0 LINE"
);
}
);
width = 573;
},
{
associatedMasterId = "262880E7-CFE1-4BDA-902E-E24798F3240A";
layerId = "52A147BE-A087-4D72-9A5D-908B44B10E17";
name = "Medium {91, 100}";
paths = (
{
closed = 1;
nodes = (
"524 0 LINE",
"260 350 LINE",
"522 700 LINE",
"407 700 LINE",
"142 350 LINE",
"407 0 LINE"
);
},
{
closed = 1;
nodes = (
"218 0 LINE",
"218 700 LINE",
"124 700 LINE",
"124 0 LINE"
);
}
);
width = 589;
},
{
associatedMasterId = "4F25946F-63AC-42D6-8D55-01CF6A99025B";
layerId = "57219196-2667-4E9B-A894-DD00D1913D76";
name = "Bold Oct 15 16, 02:53";
paths = (
{
closed = 1;
nodes = (
"590 0 LINE",
"413 350 LINE",
"585 700 LINE",
"335 700 LINE",
"193 350 LINE",
"335 0 LINE"
);
},
{
closed = 1;
nodes = (
"265 0 LINE",
"265 700 LINE",
"57 700 LINE",
"57 0 LINE"
);
}
);
width = 593;
}
);
unicode = 004B;
},
{
color = 1;
glyphname = L;
lastChange = "2016-10-18 03:01:13 +0000";
layers = (
{
layerId = "262880E7-CFE1-4BDA-902E-E24798F3240A";
paths = (
{
closed = 1;
nodes = (
"408 0 LINE",
"408 22 LINE",
"119 22 LINE",
"119 700 LINE",
"97 700 LINE",
"97 0 LINE"
);
}
);
width = 468;
},
{
layerId = "4F25946F-63AC-42D6-8D55-01CF6A99025B";
paths = (
{
closed = 1;
nodes = (
"502 0 LINE",
"502 192 LINE",
"253 192 LINE",
"253 700 LINE",
"45 700 LINE",
"45 0 LINE"
);
}
);
width = 506;
}
);
unicode = 004C;
},
{
color = 1;
glyphname = M;
lastChange = "2016-10-18 03:01:12 +0000";
layers = (
{
layerId = "262880E7-CFE1-4BDA-902E-E24798F3240A";
paths = (
{
closed = 1;
nodes = (
"116 0 LINE",
"119 655 LINE",
"276 324 LINE",
"434 655 LINE",
"434 0 LINE",
"455 0 LINE",
"455 700 LINE",
"433 700 LINE",
"276 372 LINE",
"119 700 LINE",
"97 700 LINE",
"97 0 LINE"
);
}
);
width = 552;
},
{
layerId = "4F25946F-63AC-42D6-8D55-01CF6A99025B";
paths = (
{
closed = 1;
nodes = (
"257 0 LINE",
"257 364 LINE",
"339 232 LINE",
"421 364 LINE",
"421 0 LINE",
"633 0 LINE",
"633 698 LINE",
"427 698 LINE",
"339 522 LINE",
"248 702 LINE",
"45 702 LINE",
"45 0 LINE"
);
}
);
width = 678;
},
{
associatedMasterId = "4F25946F-63AC-42D6-8D55-01CF6A99025B";
layerId = "BF6C6FBC-ABCF-4728-B32F-BE7F013B92F9";
name = "Medium {91, 100}";
paths = (
{
closed = 1;
nodes = (
"216 0 LINE",
"218 503 LINE",
"346 261 LINE",
"476 503 LINE",
"476 0 LINE",
"569 0 LINE",
"569 699 LINE",
"477 699 LINE",
"346 423 LINE",
"214 701 LINE",
"124 701 LINE",
"124 0 LINE"
);
}
);
width = 693;
}
);
unicode = 004D;
},
{
color = 1;
glyphname = N;
lastChange = "2016-10-18 03:01:12 +0000";
layers = (
{
layerId = "262880E7-CFE1-4BDA-902E-E24798F3240A";
paths = (
{
closed = 1;
nodes = (
"119 0 LINE",
"119 647 LINE",
"396 0 LINE",
"419 0 LINE",
"419 700 LINE",
"397 700 LINE",
"397 53 LINE",
"120 700 LINE",
"97 700 LINE",
"97 0 LINE"
);
}
);
width = 516;
},
{
layerId = "4F25946F-63AC-42D6-8D55-01CF6A99025B";
paths = (
{
closed = 1;
nodes = (
"245 0 LINE",
"248 269 LINE",
"396 0 LINE",
"560 0 LINE",
"560 700 LINE",
"363 700 LINE",
"363 404 LINE",
"209 700 LINE",
"45 700 LINE",
"45 0 LINE"
);
}
);
width = 605;
},
{
associatedMasterId = "4F25946F-63AC-42D6-8D55-01CF6A99025B";
layerId = "0B1885C1-B30B-43AF-BA88-F41889FEAFD7";
name = "DemiBold{119,100}";
paths = (
{
closed = 1;
nodes = (
"218 0 LINE",
"220 393 LINE",
"427 0 LINE",
"526.006 0 LINE",
"526.006 700 LINE",
"410 700 LINE",
"410 284 LINE",
"199 700 LINE",
"100 700 LINE",
"100 0 LINE"
);
}
);
width = 627;
}
);
unicode = 004E;
},
{
color = 1;
glyphname = O;
lastChange = "2016-10-18 03:01:13 +0000";
layers = (
{
layerId = "262880E7-CFE1-4BDA-902E-E24798F3240A";
paths = (
{
closed = 1;
nodes = (
"338 -9 OFFCURVE",
"410 60 OFFCURVE",
"410 150 CURVE SMOOTH",
"410 550 LINE SMOOTH",
"410 640 OFFCURVE",
"338 709 OFFCURVE",
"249 709 CURVE SMOOTH",
"160 709 OFFCURVE",
"88 640 OFFCURVE",
"88 550 CURVE SMOOTH",
"88 150 LINE SMOOTH",
"88 60 OFFCURVE",
"160 -9 OFFCURVE",
"249 -9 CURVE SMOOTH"
);
},
{
closed = 1;
nodes = (
"170 11 OFFCURVE",
"110 72 OFFCURVE",
"110 150 CURVE SMOOTH",
"110 550 LINE SMOOTH",
"110 629 OFFCURVE",
"172 690 OFFCURVE",
"249 690 CURVE SMOOTH",
"326 690 OFFCURVE",
"388 629 OFFCURVE",
"388 550 CURVE SMOOTH",
"388 150 LINE SMOOTH",
"388 72 OFFCURVE",
"328 11 OFFCURVE",
"249 11 CURVE SMOOTH"
);
}
);
width = 498;
},
{
layerId = "4F25946F-63AC-42D6-8D55-01CF6A99025B";
paths = (
{
closed = 1;
nodes = (
"440 -10 OFFCURVE",
"544 87 OFFCURVE",
"544 233 CURVE SMOOTH",
"544 467 LINE SMOOTH",
"544 613 OFFCURVE",
"440 710 OFFCURVE",
"284 710 CURVE SMOOTH",
"128 710 OFFCURVE",
"24 613 OFFCURVE",
"24 467 CURVE SMOOTH",
"24 233 LINE SMOOTH",
"24 87 OFFCURVE",
"128 -10 OFFCURVE",
"284 -10 CURVE SMOOTH"
);
},
{
closed = 1;
nodes = (
"255 174 OFFCURVE",
"236 194 OFFCURVE",
"236 223 CURVE SMOOTH",
"236 477 LINE SMOOTH",
"236 506 OFFCURVE",
"255 526 OFFCURVE",
"284 526 CURVE SMOOTH",
"313 526 OFFCURVE",
"332 506 OFFCURVE",
"332 477 CURVE SMOOTH",
"332 223 LINE SMOOTH",
"332 194 OFFCURVE",
"313 174 OFFCURVE",
"284 174 CURVE SMOOTH"
);
}
);
width = 568;
}
);
unicode = 004F;
},
{
color = 1;
glyphname = P;
lastChange = "2016-10-18 03:01:12 +0000";
layers = (
{
layerId = "262880E7-CFE1-4BDA-902E-E24798F3240A";
paths = (
{
closed = 1;
nodes = (
"119 0 LINE",
"119 679 LINE",
"243 679 LINE SMOOTH",
"343 679 OFFCURVE",
"404 616 OFFCURVE",
"404 513 CURVE SMOOTH",
"404 409 OFFCURVE",
"343 346 OFFCURVE",
"243 346 CURVE SMOOTH",
"114 346 LINE",
"114 324 LINE",
"243 325 LINE SMOOTH",
"356 326 OFFCURVE",
"426 397 OFFCURVE",
"426 512 CURVE SMOOTH",
"426 629 OFFCURVE",
"356 700 OFFCURVE",
"243 700 CURVE SMOOTH",
"97 700 LINE",
"97 0 LINE"
);
}
);
width = 494;
},
{
layerId = "4F25946F-63AC-42D6-8D55-01CF6A99025B";
paths = (
{
closed = 1;
nodes = (
"257 0 LINE",
"257 512 LINE",
"286 512 LINE SMOOTH",
"315 512 OFFCURVE",
"335 492 OFFCURVE",
"335 462 CURVE SMOOTH",
"335 432 OFFCURVE",
"315 412 OFFCURVE",
"286 412 CURVE SMOOTH",
"241 412 LINE",
"241 233 LINE",
"325 233 LINE SMOOTH",
"458 233 OFFCURVE",
"547 326 OFFCURVE",
"547 465 CURVE SMOOTH",
"547 606 OFFCURVE",
"455 700 OFFCURVE",
"316 700 CURVE SMOOTH",
"45 700 LINE",
"45 0 LINE"
);
}
);
width = 553;
}
);
unicode = 0050;
},
{
color = 1;
glyphname = Q;
lastChange = "2016-10-18 03:01:12 +0000";
layers = (
{
layerId = "262880E7-CFE1-4BDA-902E-E24798F3240A";
paths = (
{
closed = 1;
nodes = (
"338 -11 OFFCURVE",
"410 60 OFFCURVE",
"410 150 CURVE SMOOTH",
"410 550 LINE SMOOTH",
"410 640 OFFCURVE",
"338 711 OFFCURVE",
"249 711 CURVE SMOOTH",
"160 711 OFFCURVE",
"88 640 OFFCURVE",
"88 550 CURVE SMOOTH",
"88 150 LINE SMOOTH",
"88 60 OFFCURVE",
"160 -11 OFFCURVE",
"249 -11 CURVE SMOOTH"
);
},
{
closed = 1;
nodes = (
"427 -41 LINE",
"218 11 LINE",
"213 -7 LINE",
"420 -65 LINE"
);
},
{
closed = 1;
nodes = (
"170 11 OFFCURVE",
"110 72 OFFCURVE",
"110 150 CURVE SMOOTH",
"110 550 LINE SMOOTH",
"110 629 OFFCURVE",
"172 690 OFFCURVE",
"249 690 CURVE SMOOTH",
"326 690 OFFCURVE",
"388 629 OFFCURVE",
"388 550 CURVE SMOOTH",
"388 150 LINE SMOOTH",
"388 72 OFFCURVE",
"328 11 OFFCURVE",
"249 11 CURVE SMOOTH"
);
}
);
width = 499;
},
{
layerId = "4F25946F-63AC-42D6-8D55-01CF6A99025B";
paths = (
{
closed = 1;
nodes = (
"434 -10 OFFCURVE",
"536 87 OFFCURVE",
"536 233 CURVE SMOOTH",
"536 467 LINE SMOOTH",
"536 613 OFFCURVE",
"434 710 OFFCURVE",
"280 710 CURVE SMOOTH",
"126 710 OFFCURVE",
"24 613 OFFCURVE",
"24 467 CURVE SMOOTH",
"24 233 LINE SMOOTH",
"24 87 OFFCURVE",
"126 -10 OFFCURVE",
"280 -10 CURVE SMOOTH"
);
},
{
closed = 1;
nodes = (
"552 113 LINE",
"228 118 LINE",
"228 -6 LINE",
"544 -43 LINE"
);
},
{
closed = 1;
nodes = (
"254 178 OFFCURVE",
"236 196 OFFCURVE",
"236 223 CURVE SMOOTH",
"236 477 LINE SMOOTH",
"236 504 OFFCURVE",
"254 522 OFFCURVE",
"280 522 CURVE SMOOTH",
"306 522 OFFCURVE",
"324 504 OFFCURVE",
"324 477 CURVE SMOOTH",
"324 223 LINE SMOOTH",
"324 196 OFFCURVE",
"306 178 OFFCURVE",
"280 178 CURVE SMOOTH"
);
}
);
width = 574;
}
);
unicode = 0051;
},
{
color = 1;
glyphname = R;
lastChange = "2016-10-18 03:19:43 +0000";
layers = (
{
layerId = "262880E7-CFE1-4BDA-902E-E24798F3240A";
paths = (
{
closed = 1;
nodes = (
"119 0 LINE",
"119 679 LINE",
"246 679 LINE SMOOTH",
"346 679 OFFCURVE",
"407 616 OFFCURVE",
"407 512 CURVE SMOOTH",
"407 408 OFFCURVE",
"346 344 OFFCURVE",
"246 344 CURVE SMOOTH",
"114 344 LINE",
"114 322 LINE",
"246 323 LINE SMOOTH",
"359 324 OFFCURVE",
"429 395 OFFCURVE",
"429 511 CURVE SMOOTH",
"429 628 OFFCURVE",
"359 700 OFFCURVE",
"246 700 CURVE SMOOTH",
"97 700 LINE",
"97 0 LINE"
);
},
{
closed = 1;
nodes = (
"387 0 LINE",
"268 340 LINE",
"248 332 LINE",
"363 0 LINE"
);
}
);
width = 497;
},
{
layerId = "4F25946F-63AC-42D6-8D55-01CF6A99025B";
paths = (
{
closed = 1;
nodes = (
"247 0 LINE",
"247 512 LINE",
"299 512 LINE SMOOTH",
"328 512 OFFCURVE",
"348 492 OFFCURVE",
"348 462 CURVE SMOOTH",
"348 432 OFFCURVE",
"328 412 OFFCURVE",
"299 412 CURVE SMOOTH",
"231 412 LINE",
"231 259 LINE",
"391 259 LINE SMOOTH",
"500 259 OFFCURVE",
"572 343 OFFCURVE",
"572 469 CURVE SMOOTH",
"572 608 OFFCURVE",
"488 700 OFFCURVE",
"361 700 CURVE SMOOTH",
"45 700 LINE",
"45 0 LINE"
);
},
{
closed = 1;
nodes = (
"587 0 LINE",
"414 320 LINE",
"198 320 LINE",
"349 0 LINE"
);
}
);
width = 591;
},
{
associatedMasterId = "4F25946F-63AC-42D6-8D55-01CF6A99025B";
layerId = "226A43B5-5CBD-42C7-8731-3A5BF7E3E8A0";
name = "Medium{91,100}";
paths = (
{
closed = 1;
nodes = (
"168 0 LINE",
"168 616 LINE",
"281 616 LINE SMOOTH",
"352 616 OFFCURVE",
"399 567 OFFCURVE",
"399 493 CURVE SMOOTH",
"399 419 OFFCURVE",
"352 370 OFFCURVE",
"281 370 CURVE SMOOTH",
"158 370 LINE",
"158 284 LINE",
"301 285 LINE SMOOTH",
"410 286 OFFCURVE",
"483 369 OFFCURVE",
"483 492 CURVE SMOOTH",
"483 619 OFFCURVE",
"406 700 OFFCURVE",
"290 700 CURVE SMOOTH",
"77 700 LINE",
"77 0 LINE"
);
},
{
closed = 1;
nodes = (
"457 0 LINE",
"327 332 LINE",
"233 327 LINE",
"351 0 LINE"
);
}
);
width = 533;
}
);
unicode = 0052;
},
{
color = 1;
glyphname = S;
lastChange = "2016-10-18 03:01:12 +0000";
layers = (
{
layerId = "262880E7-CFE1-4BDA-902E-E24798F3240A";
paths = (
{
closed = 1;
nodes = (
"334 -9 OFFCURVE",
"396 50 OFFCURVE",
"396 149 CURVE SMOOTH",
"396 255 OFFCURVE",
"324 306 OFFCURVE",
"241 361 CURVE SMOOTH",
"158 416 OFFCURVE",
"96 459 OFFCURVE",
"96 552 CURVE SMOOTH",
"96 636 OFFCURVE",
"148 690 OFFCURVE",
"232 690 CURVE SMOOTH",
"316 690 OFFCURVE",
"368 637 OFFCURVE",
"368 550 CURVE SMOOTH",
"368 500 LINE",
"390 500 LINE",
"390 550 LINE SMOOTH",
"390 650 OFFCURVE",
"330 709 OFFCURVE",
"232 709 CURVE SMOOTH",
"134 709 OFFCURVE",
"74 649 OFFCURVE",
"74 553 CURVE SMOOTH",
"74 446 OFFCURVE",
"149 394 OFFCURVE",
"227 342 CURVE SMOOTH",
"304 291 OFFCURVE",
"374 244 OFFCURVE",
"374 148 CURVE SMOOTH",
"374 63 OFFCURVE",
"320 11 OFFCURVE",
"233 11 CURVE SMOOTH",
"146 11 OFFCURVE",
"96 64 OFFCURVE",
"96 150 CURVE SMOOTH",
"96 210 LINE",
"76 210 LINE",
"76 150 LINE SMOOTH",
"76 50 OFFCURVE",
"133 -9 OFFCURVE",
"234 -9 CURVE SMOOTH"
);
}
);
width = 469;
},
{
layerId = "4F25946F-63AC-42D6-8D55-01CF6A99025B";
paths = (
{
closed = 1;
nodes = (
"428 -10 OFFCURVE",
"522 74 OFFCURVE",
"522 200 CURVE SMOOTH",
"522 312 OFFCURVE",
"448 381 OFFCURVE",
"335 425 CURVE SMOOTH",
"289 443 OFFCURVE",
"236 456 OFFCURVE",
"236 489 CURVE SMOOTH",
"236 503 OFFCURVE",
"246 518 OFFCURVE",
"270 518 CURVE SMOOTH",
"296 518 OFFCURVE",
"311 501 OFFCURVE",
"311 479 CURVE SMOOTH",
"311 464 LINE",
"523 474 LINE",
"523 479 LINE SMOOTH",
"523 617 OFFCURVE",
"416 710 OFFCURVE",
"264 710 CURVE SMOOTH",
"117 710 OFFCURVE",
"21 624 OFFCURVE",
"21 498 CURVE SMOOTH",
"21 389 OFFCURVE",
"94 318 OFFCURVE",
"208 275 CURVE SMOOTH",
"250 259 OFFCURVE",
"306 245 OFFCURVE",
"306 214 CURVE SMOOTH",
"306 201 OFFCURVE",
"297 182 OFFCURVE",
"271 182 CURVE SMOOTH",
"247 182 OFFCURVE",
"232 199 OFFCURVE",
"232 231 CURVE SMOOTH",
"232 236 LINE",
"9 226 LINE",
"9 221 LINE SMOOTH",
"9 83 OFFCURVE",
"115 -10 OFFCURVE",
"275 -10 CURVE SMOOTH"
);
}
);
width = 536;
}
);
unicode = 0053;
},
{
color = 1;
glyphname = T;
lastChange = "2016-10-18 03:01:13 +0000";
layers = (
{
layerId = "262880E7-CFE1-4BDA-902E-E24798F3240A";
paths = (
{
closed = 1;
nodes = (
"228 0 LINE",
"228 689 LINE",
"206 689 LINE",
"206 0 LINE"
);
},
{
closed = 1;
nodes = (
"382 679 LINE",
"382 700 LINE",
"60 700 LINE",
"60 679 LINE"
);
}
);
width = 442;
},
{
layerId = "4F25946F-63AC-42D6-8D55-01CF6A99025B";
paths = (
{
closed = 1;
nodes = (
"365 0 LINE",
"365 606 LINE",
"153 606 LINE",
"153 0 LINE"
);
},
{
closed = 1;
nodes = (
"513 500 LINE",
"513 700 LINE",
"5 700 LINE",
"5 500 LINE"
);
}
);
width = 518;
}
);
unicode = 0054;
},
{
color = 1;
glyphname = U;
lastChange = "2016-10-18 03:01:12 +0000";
layers = (
{
layerId = "262880E7-CFE1-4BDA-902E-E24798F3240A";
paths = (
{
closed = 1;
nodes = (
"353 -9 OFFCURVE",
"415 50 OFFCURVE",
"415 150 CURVE SMOOTH",
"415 700 LINE",
"393 700 LINE",
"393 150 LINE SMOOTH",
"393 64 OFFCURVE",
"341 11 OFFCURVE",
"254 11 CURVE SMOOTH",
"167 11 OFFCURVE",
"115 64 OFFCURVE",
"115 150 CURVE SMOOTH",
"115 700 LINE",
"93 700 LINE",
"93 150 LINE SMOOTH",
"93 50 OFFCURVE",
"155 -9 OFFCURVE",
"254 -9 CURVE SMOOTH"
);
}
);
width = 508;
},
{
layerId = "4F25946F-63AC-42D6-8D55-01CF6A99025B";
paths = (
{
closed = 1;
nodes = (
"445 -10 OFFCURVE",
"547 88 OFFCURVE",
"547 234 CURVE SMOOTH",
"547 700 LINE",
"335 700 LINE",
"335 234 LINE SMOOTH",
"335 200 OFFCURVE",
"317 178 OFFCURVE",
"291 178 CURVE SMOOTH",
"265 178 OFFCURVE",
"247 200 OFFCURVE",
"247 234 CURVE SMOOTH",
"247 700 LINE",
"35 700 LINE",
"35 234 LINE SMOOTH",
"35 88 OFFCURVE",
"137 -10 OFFCURVE",
"291 -10 CURVE SMOOTH"
);
}
);
width = 582;
}
);
unicode = 0055;
},
{
color = 1;
glyphname = V;
lastChange = "2016-10-18 03:19:18 +0000";
layers = (
{
layerId = "262880E7-CFE1-4BDA-902E-E24798F3240A";
paths = (
{
closed = 1;
nodes = (
"250 0 LINE",
"415 700 LINE",
"393 700 LINE",
"239 40 LINE",
"85 700 LINE",
"63 700 LINE",
"228 0 LINE"
);
}
);
width = 478;
},
{
layerId = "4F25946F-63AC-42D6-8D55-01CF6A99025B";
paths = (
{
closed = 1;
nodes = (
"379 0 LINE",
"549 700 LINE",
"334 700 LINE",
"273 300 LINE",
"212 700 LINE",
"-3 700 LINE",
"167 0 LINE"
);
}
);
width = 546;
}
);
unicode = 0056;
},
{
color = 1;
glyphname = W;
lastChange = "2016-10-18 03:18:52 +0000";
layers = (
{
layerId = "262880E7-CFE1-4BDA-902E-E24798F3240A";
paths = (
{
closed = 1;
nodes = (
"212 0 LINE",
"326 648 LINE",
"440 0 LINE",
"462 0 LINE",
"587 700 LINE",
"565 700 LINE",
"451 52 LINE",
"337 700 LINE",
"315 700 LINE",
"201 52 LINE",
"87 700 LINE",
"65 700 LINE",
"190 0 LINE"
);
}
);
width = 652;
},
{
layerId = "4F25946F-63AC-42D6-8D55-01CF6A99025B";
paths = (
{
closed = 1;
nodes = (
"370 1 LINE",
"406 307 LINE",
"442 1 LINE",
"660 1 LINE",
"814 700 LINE",
"598 700 LINE",
"553 363 LINE",
"511 699 LINE",
"301 699 LINE",
"259 363 LINE",
"214 700 LINE",
"-2 700 LINE",
"152 1 LINE"
);
}
);
width = 812;
}
);
unicode = 0057;
},
{
color = 1;
glyphname = X;
lastChange = "2016-10-18 03:18:14 +0000";
layers = (
{
layerId = "262880E7-CFE1-4BDA-902E-E24798F3240A";
paths = (
{
closed = 1;
nodes = (
"373 700 LINE",
"230 376 LINE",
"87 700 LINE",
"64 700 LINE",
"219 350 LINE",
"64 0 LINE",
"87 0 LINE",
"230 324 LINE",
"373 0 LINE",
"396 0 LINE",
"242 350 LINE",
"396 700 LINE"
);
}
);
width = 460;
},
{
layerId = "4F25946F-63AC-42D6-8D55-01CF6A99025B";
paths = (
{
closed = 1;
nodes = (
"368 700 LINE",
"301 559 LINE",
"234 700 LINE",
"-4 700 LINE",
"184 350 LINE",
"-4 0 LINE",
"234 0 LINE",
"301 141 LINE",
"368 0 LINE",
"606 0 LINE",
"418 350 LINE",
"606 700 LINE"
);
}
);
width = 602;
},
{
associatedMasterId = "4F25946F-63AC-42D6-8D55-01CF6A99025B";
layerId = "A81EC77E-A514-41C1-A690-EF61EA7402F1";
name = "Bold Oct 15 16, 02:50";
paths = (
{
closed = 1;
nodes = (
"4 700 LINE",
"242 700 LINE",
"582 0 LINE",
"344 0 LINE"
);
},
{
closed = 1;
nodes = (
"344 700 LINE",
"582 700 LINE",
"242 0 LINE",
"4 0 LINE"
);
}
);
width = 586;
},
{
associatedMasterId = "262880E7-CFE1-4BDA-902E-E24798F3240A";
layerId = "F2B2385B-1C24-46F1-AB29-8D87B4EEE0C2";
name = "DEMIBOLD{119,100}";
paths = (
{
closed = 1;
nodes = (
"353 700 LINE",
"256 471 LINE",
"160 700 LINE",
"28 700 LINE",
"191 350 LINE",
"28 0 LINE",
"160 0 LINE",
"256 229 LINE",
"353 0 LINE",
"484 0 LINE",
"322 350 LINE",
"484 700 LINE"
);
}
);
width = 536;
},
{
associatedMasterId = "262880E7-CFE1-4BDA-902E-E24798F3240A";
layerId = "077702AC-624F-4016-8C7C-9CDBE6837B88";
name = "Light Oct 16 16, 21:49";
paths = (
{
closed = 1;
nodes = (
"441 700 LINE",
"298 376 LINE",
"155 700 LINE",
"132 700 LINE",
"287 350 LINE",
"132 0 LINE",
"155 0 LINE",
"298 324 LINE",
"441 0 LINE",
"464 0 LINE",
"310 350 LINE",
"464 700 LINE"
);
}
);
width = 596;
}
);
unicode = 0058;
},
{
color = 1;
glyphname = Y;
lastChange = "2016-10-18 03:01:13 +0000";
layers = (
{
layerId = "262880E7-CFE1-4BDA-902E-E24798F3240A";
paths = (
{
closed = 1;
nodes = (
"395 700 LINE",
"370 700 LINE",
"228 379 LINE",
"87 700 LINE",
"61 700 LINE",
"228 328 LINE"
);
},
{
closed = 1;
nodes = (
"239 0 LINE",
"239 350 LINE",
"217 350 LINE",
"217 0 LINE"
);
}
);
width = 456;
},
{
layerId = "4F25946F-63AC-42D6-8D55-01CF6A99025B";
paths = (
{
closed = 1;
nodes = (
"629 700 LINE",
"403 700 LINE",
"316 479 LINE",
"228 700 LINE",
"-8 700 LINE",
"315 12 LINE"
);
},
{
closed = 1;
nodes = (
"423 0 LINE",
"423 350 LINE",
"207 350 LINE",
"207 0 LINE"
);
}
);
width = 621;
}
);
unicode = 0059;
},
{
color = 1;
glyphname = Z;
lastChange = "2016-10-18 03:01:13 +0000";
layers = (
{
layerId = "262880E7-CFE1-4BDA-902E-E24798F3240A";
paths = (
{
closed = 1;
nodes = (
"378 0 LINE",
"378 22 LINE",
"94 22 LINE",
"394 700 LINE",
"78 700 LINE",
"78 679 LINE",
"362 679 LINE",
"62 0 LINE"
);
}
);
width = 456;
},
{
layerId = "4F25946F-63AC-42D6-8D55-01CF6A99025B";
paths = (
{
closed = 1;
nodes = (
"478 0 LINE",
"478 198 LINE",
"288 198 LINE",
"478 700 LINE",
"13 700 LINE",
"13 502 LINE",
"208 502 LINE",
"10 0 LINE"
);
}
);
width = 490;
}
);
unicode = 005A;
},
{
color = 1;
glyphname = a;
lastChange = "2016-10-18 03:15:04 +0000";
layers = (
{
layerId = "262880E7-CFE1-4BDA-902E-E24798F3240A";
paths = (
{
closed = 1;
nodes = (
"322 -7 OFFCURVE",
"381 56 OFFCURVE",
"381 156 CURVE SMOOTH",
"381 344 LINE SMOOTH",
"381 444 OFFCURVE",
"322 507 OFFCURVE",
"226 507 CURVE SMOOTH",
"129 507 OFFCURVE",
"66 446 OFFCURVE",
"66 346 CURVE SMOOTH",
"66 154 LINE SMOOTH",
"66 54 OFFCURVE",
"129 -7 OFFCURVE",
"226 -7 CURVE SMOOTH"
);
},
{
closed = 1;
nodes = (
"140 15 OFFCURVE",
"88 68 OFFCURVE",
"88 154 CURVE SMOOTH",
"88 346 LINE SMOOTH",
"88 432 OFFCURVE",
"142 486 OFFCURVE",
"227 486 CURVE SMOOTH",
"312 486 OFFCURVE",
"366 432 OFFCURVE",
"366 346 CURVE SMOOTH",
"366 154 LINE SMOOTH",
"366 68 OFFCURVE",
"314 15 OFFCURVE",
"227 15 CURVE SMOOTH"
);
},
{
closed = 1;
nodes = (
"388 0 LINE",
"388 500 LINE",
"366 500 LINE",
"366 0 LINE"
);
}
);
width = 466;
},
{
layerId = "4F25946F-63AC-42D6-8D55-01CF6A99025B";
paths = (
{
closed = 1;
nodes = (
"336 0 OFFCURVE",
"381 109 OFFCURVE",
"381 208 CURVE SMOOTH",
"381 298 LINE",
"376 394 OFFCURVE",
"334 502 OFFCURVE",
"184 502 CURVE SMOOTH",
"72 502 OFFCURVE",
"22 441 OFFCURVE",
"22 350 CURVE SMOOTH",
"22 152 LINE SMOOTH",
"22 61 OFFCURVE",
"75 0 OFFCURVE",
"187 0 CURVE SMOOTH"
);
},
{
closed = 1;
nodes = (
"247 163 OFFCURVE",
"229 181 OFFCURVE",
"229 208 CURVE SMOOTH",
"229 294 LINE SMOOTH",
"229 321 OFFCURVE",
"247 339 OFFCURVE",
"273 339 CURVE SMOOTH",
"299 339 OFFCURVE",
"316 321 OFFCURVE",
"316 294 CURVE SMOOTH",
"316 208 LINE SMOOTH",
"316 181 OFFCURVE",
"299 163 OFFCURVE",
"273 163 CURVE SMOOTH"
);
},
{
closed = 1;
nodes = (
"523 0 LINE",
"523 500 LINE",
"316 500 LINE",
"316 0 LINE"
);
}
);
width = 559;
},
{
associatedMasterId = "4F25946F-63AC-42D6-8D55-01CF6A99025B";
layerId = "47FC566B-2B97-4943-A9EB-638501BAD42D";
name = "DemiBold{119,100}";
paths = (
{
closed = 1;
nodes = (
"330 -3 OFFCURVE",
"401 88 OFFCURVE",
"401 184 CURVE SMOOTH",
"401 319 LINE SMOOTH",
"401 413 OFFCURVE",
"328 504 OFFCURVE",
"213 504 CURVE SMOOTH",
"98 504 OFFCURVE",
"42 443 OFFCURVE",
"42 348 CURVE SMOOTH",
"42 153 LINE SMOOTH",
"42 58 OFFCURVE",
"100 -3 OFFCURVE",
"215 -3 CURVE SMOOTH"
);
},
{
closed = 1;
nodes = (
"197 94 OFFCURVE",
"164 129 OFFCURVE",
"164 183 CURVE SMOOTH",
"164 318 LINE SMOOTH",
"164 372 OFFCURVE",
"198 407 OFFCURVE",
"252 407 CURVE SMOOTH",
"305 407 OFFCURVE",
"339 372 OFFCURVE",
"339 318 CURVE SMOOTH",
"339 183 LINE SMOOTH",
"339 129 OFFCURVE",
"306 94 OFFCURVE",
"252 94 CURVE SMOOTH"
);
},
{
closed = 1;
nodes = (
"460 0 LINE",
"460 500 LINE",
"339 500 LINE",
"339 0 LINE"
);
}
);
width = 516;
visible = 1;
}
);
unicode = 0061;
},
{
color = 1;
glyphname = b;
lastChange = "2016-10-18 03:01:13 +0000";
layers = (
{
layerId = "262880E7-CFE1-4BDA-902E-E24798F3240A";
paths = (
{
closed = 1;
nodes = (
"340 -7 OFFCURVE",
"400 54 OFFCURVE",
"400 154 CURVE SMOOTH",
"400 346 LINE SMOOTH",
"400 446 OFFCURVE",
"340 507 OFFCURVE",
"242 507 CURVE SMOOTH",
"144 507 OFFCURVE",
"80 444 OFFCURVE",
"80 344 CURVE SMOOTH",
"80 156 LINE SMOOTH",
"80 56 OFFCURVE",
"144 -7 OFFCURVE",
"242 -7 CURVE SMOOTH"
);
},
{
closed = 1;
nodes = (
"100 0 LINE",
"100 700 LINE",
"78 700 LINE",
"78 0 LINE"
);
},
{
closed = 1;
nodes = (
"153 15 OFFCURVE",
"100 68 OFFCURVE",
"100 154 CURVE SMOOTH",
"100 346 LINE SMOOTH",
"100 433 OFFCURVE",
"153 486 OFFCURVE",
"239 486 CURVE SMOOTH",
"325 486 OFFCURVE",
"378 433 OFFCURVE",
"378 346 CURVE SMOOTH",
"378 154 LINE SMOOTH",
"378 68 OFFCURVE",
"325 15 OFFCURVE",
"239 15 CURVE SMOOTH"
);
}
);
width = 466;
},
{
layerId = "4F25946F-63AC-42D6-8D55-01CF6A99025B";
paths = (
{
closed = 1;
nodes = (
"474 0 OFFCURVE",
"537 61 OFFCURVE",
"537 152 CURVE SMOOTH",
"537 350 LINE SMOOTH",
"537 441 OFFCURVE",
"492 502 OFFCURVE",
"371 502 CURVE SMOOTH",
"213 502 OFFCURVE",
"182 396 OFFCURVE",
"178 298 CURVE",
"178 195 LINE SMOOTH",
"178 108 OFFCURVE",
"221 0 OFFCURVE",
"365 0 CURVE SMOOTH"
);
},
{
closed = 1;
nodes = (
"243 0 LINE",
"243 700 LINE",
"36 700 LINE",
"36 0 LINE"
);
},
{
closed = 1;
nodes = (
"260 163 OFFCURVE",
"243 181 OFFCURVE",
"243 208 CURVE SMOOTH",
"243 294 LINE SMOOTH",
"243 321 OFFCURVE",
"260 339 OFFCURVE",
"286 339 CURVE SMOOTH",
"312 339 OFFCURVE",
"330 321 OFFCURVE",
"330 294 CURVE SMOOTH",
"330 208 LINE SMOOTH",
"330 181 OFFCURVE",
"312 163 OFFCURVE",
"286 163 CURVE SMOOTH"
);
}
);
width = 558;
}
);
unicode = 0062;
},
{
color = 1;
glyphname = c;
lastChange = "2016-10-18 03:01:13 +0000";
layers = (
{
layerId = "262880E7-CFE1-4BDA-902E-E24798F3240A";
paths = (
{
closed = 1;
nodes = (
"326 -5 OFFCURVE",
"388 54 OFFCURVE",
"388 154 CURVE SMOOTH",
"388 157 LINE",
"366 157 LINE",
"366 154 LINE SMOOTH",
"366 68 OFFCURVE",
"314 15 OFFCURVE",
"227 15 CURVE SMOOTH",
"140 15 OFFCURVE",
"88 68 OFFCURVE",
"88 154 CURVE SMOOTH",
"88 346 LINE SMOOTH",
"88 433 OFFCURVE",
"142 486 OFFCURVE",
"227 486 CURVE SMOOTH",
"312 486 OFFCURVE",
"366 433 OFFCURVE",
"366 346 CURVE SMOOTH",
"366 344 LINE",
"388 344 LINE",
"388 346 LINE SMOOTH",
"388 446 OFFCURVE",
"326 505 OFFCURVE",
"227 505 CURVE SMOOTH",
"128 505 OFFCURVE",
"66 446 OFFCURVE",
"66 346 CURVE SMOOTH",
"66 154 LINE SMOOTH",
"66 54 OFFCURVE",
"128 -5 OFFCURVE",
"227 -5 CURVE SMOOTH"
);
}
);
width = 441;
},
{
layerId = "4F25946F-63AC-42D6-8D55-01CF6A99025B";
paths = (
{
closed = 1;
nodes = (
"413 -3 OFFCURVE",
"515 73 OFFCURVE",
"523 188 CURVE",
"523 230 LINE",
"312 230 LINE",
"312 207 LINE SMOOTH",
"312 182 OFFCURVE",
"294 166 OFFCURVE",
"268 166 CURVE SMOOTH",
"242 166 OFFCURVE",
"225 182 OFFCURVE",
"225 207 CURVE",
"225 297 LINE",
"225 322 OFFCURVE",
"242 338 OFFCURVE",
"268 338 CURVE SMOOTH",
"294 338 OFFCURVE",
"312 322 OFFCURVE",
"312 297 CURVE",
"312 272 LINE",
"523 272 LINE",
"523 325 LINE",
"521 432 OFFCURVE",
"419 503 OFFCURVE",
"267 503 CURVE SMOOTH",
"115 503 OFFCURVE",
"13 432 OFFCURVE",
"13 325 CURVE SMOOTH",
"13 188 LINE SMOOTH",
"13 73 OFFCURVE",
"115 -3 OFFCURVE",
"264 -3 CURVE SMOOTH"
);
}
);
width = 534;
},
{
associatedMasterId = "4F25946F-63AC-42D6-8D55-01CF6A99025B";
layerId = "7B6958F8-F0D4-40F0-82E9-17D44A566858";
name = "DemiBold{119,100}";
paths = (
{
closed = 1;
nodes = (
"407 -9 OFFCURVE",
"479 60 OFFCURVE",
"484 195 CURVE SMOOTH",
"484 198 LINE",
"361 198 LINE",
"361 198 LINE SMOOTH",
"361 146 OFFCURVE",
"326 105 OFFCURVE",
"273 105 CURVE SMOOTH",
"220 105 OFFCURVE",
"185 146 OFFCURVE",
"185 198 CURVE SMOOTH",
"185 310 LINE SMOOTH",
"185 362 OFFCURVE",
"220 400 OFFCURVE",
"273 400 CURVE SMOOTH",
"326 400 OFFCURVE",
"361 362 OFFCURVE",
"361 310 CURVE SMOOTH",
"361 308 LINE",
"484 308 LINE",
"484 310 LINE SMOOTH",
"483 441 OFFCURVE",
"411 509 OFFCURVE",
"272 509 CURVE SMOOTH",
"133 509 OFFCURVE",
"62 437 OFFCURVE",
"62 298 CURVE SMOOTH",
"62 204 LINE SMOOTH",
"62 63 OFFCURVE",
"133 -9 OFFCURVE",
"272 -9 CURVE SMOOTH"
);
}
);
width = 559;
}
);
unicode = 0063;
},
{
color = 1;
glyphname = e;
lastChange = "2016-10-18 03:02:29 +0000";
layers = (
{
layerId = "262880E7-CFE1-4BDA-902E-E24798F3240A";
paths = (
{
closed = 1;
nodes = (
"326 -5 OFFCURVE",
"388 54 OFFCURVE",
"388 154 CURVE SMOOTH",
"388 158 LINE",
"366 158 LINE",
"366 154 LINE SMOOTH",
"366 68 OFFCURVE",
"314 15 OFFCURVE",
"227 15 CURVE SMOOTH",
"140 15 OFFCURVE",
"88 68 OFFCURVE",
"88 154 CURVE SMOOTH",
"88 346 LINE SMOOTH",
"88 433 OFFCURVE",
"142 486 OFFCURVE",
"227 486 CURVE SMOOTH",
"312 486 OFFCURVE",
"366 433 OFFCURVE",
"366 346 CURVE SMOOTH",
"366 261 LINE",
"83 261 LINE",
"83 240 LINE",
"388 240 LINE",
"388 346 LINE SMOOTH",
"388 446 OFFCURVE",
"326 505 OFFCURVE",
"227 505 CURVE SMOOTH",
"128 505 OFFCURVE",
"66 446 OFFCURVE",
"66 346 CURVE SMOOTH",
"66 154 LINE SMOOTH",
"66 54 OFFCURVE",
"128 -5 OFFCURVE",
"227 -5 CURVE SMOOTH"
);
}
);
width = 449;
},
{
layerId = "4F25946F-63AC-42D6-8D55-01CF6A99025B";
paths = (
{
closed = 1;
nodes = (
"413 -3 OFFCURVE",
"515 76 OFFCURVE",
"523 193 CURVE",
"523 210 LINE",
"312 210 LINE",
"312 207 LINE SMOOTH",
"312 182 OFFCURVE",
"294 166 OFFCURVE",
"268 166 CURVE SMOOTH",
"242 166 OFFCURVE",
"225 182 OFFCURVE",
"225 207 CURVE SMOOTH",
"225 297 LINE SMOOTH",
"225 322 OFFCURVE",
"242 338 OFFCURVE",
"268 338 CURVE SMOOTH",
"294 338 OFFCURVE",
"312 322 OFFCURVE",
"312 297 CURVE SMOOTH",
"312 276 LINE",
"214 276 LINE",
"214 235 LINE",
"523 235 LINE",
"523 320 LINE",
"521 430 OFFCURVE",
"419 503 OFFCURVE",
"267 503 CURVE SMOOTH",
"115 503 OFFCURVE",
"13 430 OFFCURVE",
"13 320 CURVE SMOOTH",
"13 193 LINE SMOOTH",
"13 75 OFFCURVE",
"114 -3 OFFCURVE",
"263 -3 CURVE SMOOTH"
);
}
);
width = 535;
},
{
associatedMasterId = "4F25946F-63AC-42D6-8D55-01CF6A99025B";
layerId = "A8631AE8-6F64-4109-B373-5711B024CF55";
name = "DemiBold {119,100}";
paths = (
{
closed = 1;
nodes = (
"385 -4 OFFCURVE",
"472 64 OFFCURVE",
"472 172 CURVE SMOOTH",
"472 182 LINE",
"349 182 LINE",
"349 182 LINE SMOOTH",
"349 129 OFFCURVE",
"315 96 OFFCURVE",
"261 96 CURVE SMOOTH",
"207 96 OFFCURVE",
"173 129 OFFCURVE",
"173 182 CURVE SMOOTH",
"173 320 LINE SMOOTH",
"173 373 OFFCURVE",
"208 407 OFFCURVE",
"261 407 CURVE SMOOTH",
"314 407 OFFCURVE",
"349 373 OFFCURVE",
"349 320 CURVE SMOOTH",
"349 298 LINE",
"165 298 LINE",
"165 215 LINE",
"472 215 LINE",
"472 335 LINE SMOOTH",
"472 438 OFFCURVE",
"388 504 OFFCURVE",
"260 504 CURVE SMOOTH",
"133 504 OFFCURVE",
"50 438 OFFCURVE",
"50 335 CURVE SMOOTH",
"50 172 LINE SMOOTH",
"50 64 OFFCURVE",
"133 -4 OFFCURVE",
"259 -4 CURVE SMOOTH"
);
}
);
width = 521;
visible = 1;
}
);
unicode = 0065;
},
{
color = 1;
glyphname = f;
lastChange = "2016-10-18 03:20:00 +0000";
layers = (
{
layerId = "262880E7-CFE1-4BDA-902E-E24798F3240A";
paths = (
{
closed = 1;
nodes = (
"133 -1 LINE",
"133 550 LINE SMOOTH",
"133 637 OFFCURVE",
"186 690 OFFCURVE",
"272 690 CURVE",
"272 711 LINE",
"172 711 OFFCURVE",
"111 650 OFFCURVE",
"111 550 CURVE SMOOTH",
"111 -1 LINE"
);
},
{
closed = 1;
nodes = (
"242 479 LINE",
"242 500 LINE",
"42 500 LINE",
"42 479 LINE"
);
}
);
width = 284;
},
{
layerId = "4F25946F-63AC-42D6-8D55-01CF6A99025B";
paths = (
{
closed = 1;
nodes = (
"240 8 LINE",
"240 525 LINE",
"240 545 OFFCURVE",
"262 551 OFFCURVE",
"284 551 CURVE",
"284 693 LINE",
"144 700 OFFCURVE",
"55 690 OFFCURVE",
"55 549 CURVE",
"55 8 LINE"
);
},
{
closed = 1;
nodes = (
"302 326 LINE",
"302 500 LINE",
"9 500 LINE",
"9 326 LINE"
);
}
);
width = 303;
},
{
associatedMasterId = "4F25946F-63AC-42D6-8D55-01CF6A99025B";
layerId = "AF0A8C32-09C6-404E-AFE0-A8C575E5B58A";
name = "Medium{91,100}";
paths = (
{
closed = 1;
nodes = (
"174 2 LINE",
"174 550 LINE SMOOTH",
"174 616 OFFCURVE",
"220 630 OFFCURVE",
"275 630 CURVE",
"276 700 LINE",
"161 703 OFFCURVE",
"90 665 OFFCURVE",
"90 550 CURVE SMOOTH",
"90 2 LINE"
);
},
{
closed = 1;
nodes = (
"265 421 LINE",
"265 500 LINE",
"29 500 LINE",
"29 421 LINE"
);
}
);
width = 291;
}
);
unicode = 0066;
},
{
color = 1;
glyphname = g;
lastChange = "2016-10-18 03:20:24 +0000";
layers = (
{
layerId = "262880E7-CFE1-4BDA-902E-E24798F3240A";
paths = (
{
closed = 1;
nodes = (
"322 -5 OFFCURVE",
"381 56 OFFCURVE",
"381 156 CURVE SMOOTH",
"381 344 LINE SMOOTH",
"381 444 OFFCURVE",
"322 505 OFFCURVE",
"224 505 CURVE SMOOTH",
"126 505 OFFCURVE",
"66 445 OFFCURVE",
"66 346 CURVE SMOOTH",
"66 154 LINE SMOOTH",
"66 55 OFFCURVE",
"126 -5 OFFCURVE",
"225 -5 CURVE"
);
},
{
closed = 1;
nodes = (
"141 17 OFFCURVE",
"88 70 OFFCURVE",
"88 156 CURVE SMOOTH",
"88 344 LINE SMOOTH",
"88 431 OFFCURVE",
"141 484 OFFCURVE",
"227 484 CURVE SMOOTH",
"313 484 OFFCURVE",
"366 431 OFFCURVE",
"366 344 CURVE SMOOTH",
"366 156 LINE SMOOTH",
"366 70 OFFCURVE",
"313 17 OFFCURVE",
"227 17 CURVE SMOOTH"
);
},
{
closed = 1;
nodes = (
"315 -206 OFFCURVE",
"388 -140 OFFCURVE",
"388 0 CURVE SMOOTH",
"388 500 LINE",
"366 500 LINE",
"366 0 LINE SMOOTH",
"366 -126 OFFCURVE",
"300 -185 OFFCURVE",
"181 -181 CURVE",
"181 -202 LINE"
);
}
);
width = 466;
},
{
layerId = "4F25946F-63AC-42D6-8D55-01CF6A99025B";
paths = (
{
closed = 1;
nodes = (
"319 -5 OFFCURVE",
"399 88 OFFCURVE",
"399 240 CURVE SMOOTH",
"399 254 LINE SMOOTH",
"399 411 OFFCURVE",
"319 504 OFFCURVE",
"189 504 CURVE",
"84 504 OFFCURVE",
"20 447 OFFCURVE",
"20 350 CURVE SMOOTH",
"20 160 LINE SMOOTH",
"20 59 OFFCURVE",
"84 -3 OFFCURVE",
"189 -4 CURVE SMOOTH"
);
},
{
closed = 1;
nodes = (
"239 165 OFFCURVE",
"222 181 OFFCURVE",
"222 206 CURVE SMOOTH",
"222 298 LINE SMOOTH",
"222 323 OFFCURVE",
"239 339 OFFCURVE",
"265 339 CURVE SMOOTH",
"291 339 OFFCURVE",
"309 323 OFFCURVE",
"309 298 CURVE SMOOTH",
"309 206 LINE SMOOTH",
"309 181 OFFCURVE",
"291 165 OFFCURVE",
"265 165 CURVE SMOOTH"
);
},
{
closed = 1;
nodes = (
"454 -226 OFFCURVE",
"521 -115 OFFCURVE",
"521 34 CURVE SMOOTH",
"521 500 LINE",
"309 500 LINE",
"309 34 LINE SMOOTH",
"309 -14 OFFCURVE",
"292 -44 OFFCURVE",
"148 -36 CURVE",
"148 -207 LINE"
);
}
);
width = 557;
}
);
unicode = 0067;
},
{
color = 1;
glyphname = h;
lastChange = "2016-10-18 03:20:54 +0000";
layers = (
{
layerId = "262880E7-CFE1-4BDA-902E-E24798F3240A";
paths = (
{
closed = 1;
nodes = (
"400 0 LINE",
"400 346 LINE SMOOTH",
"400 446 OFFCURVE",
"338 505 OFFCURVE",
"241 505 CURVE SMOOTH",
"143 505 OFFCURVE",
"84 444 OFFCURVE",
"84 344 CURVE",
"100 344 LINE",
"100 431 OFFCURVE",
"154 484 OFFCURVE",
"239 484 CURVE SMOOTH",
"324 484 OFFCURVE",
"378 431 OFFCURVE",
"378 344 CURVE SMOOTH",
"378 0 LINE"
);
},
{
closed = 1;
nodes = (
"100 0 LINE",
"100 700 LINE",
"78 700 LINE",
"78 0 LINE"
);
}
);
width = 472;
},
{
layerId = "4F25946F-63AC-42D6-8D55-01CF6A99025B";
paths = (
{
closed = 1;
nodes = (
"538 0 LINE",
"538 350 LINE SMOOTH",
"538 441 OFFCURVE",
"487 510 OFFCURVE",
"371 510 CURVE SMOOTH",
"222 510 OFFCURVE",
"179 396 OFFCURVE",
"179 294 CURVE",
"244 294 LINE",
"244 321 OFFCURVE",
"261 339 OFFCURVE",
"287 339 CURVE SMOOTH",
"313 339 OFFCURVE",
"331 321 OFFCURVE",
"331 294 CURVE SMOOTH",
"331 0 LINE"
);
},
{
closed = 1;
nodes = (
"244 0 LINE",
"244 700 LINE",
"36 700 LINE",
"36 0 LINE"
);
}
);
width = 567;
},
{
associatedMasterId = "4F25946F-63AC-42D6-8D55-01CF6A99025B";
layerId = "6DA8EE20-322F-490D-912C-EA80E03ECB77";
name = "Medium {91, 100}";
paths = (
{
closed = 1;
nodes = (
"453 0 LINE",
"453 348 LINE SMOOTH",
"453 444 OFFCURVE",
"393 507 OFFCURVE",
"285 507 CURVE SMOOTH",
"172 507 OFFCURVE",
"111 437 OFFCURVE",
"111 326 CURVE",
"155 326 LINE",
"155 390 OFFCURVE",
"195 430 OFFCURVE",
"257 430 CURVE SMOOTH",
"320 430 OFFCURVE",
"360 390 OFFCURVE",
"360 326 CURVE SMOOTH",
"360 0 LINE"
);
},
{
closed = 1;
nodes = (
"155 0 LINE",
"155 700 LINE",
"62 700 LINE",
"62 0 LINE"
);
}
);
width = 508;
}
);
unicode = 0068;
},
{
color = 1;
glyphname = i;
lastChange = "2016-10-18 03:01:12 +0000";
layers = (
{
layerId = "262880E7-CFE1-4BDA-902E-E24798F3240A";
paths = (
{
closed = 1;
nodes = (
"100 -1 LINE",
"100 500 LINE",
"78 500 LINE",
"78 -1 LINE"
);
},
{
closed = 1;
nodes = (
"106 669 OFFCURVE",
"120 683 OFFCURVE",
"120 700 CURVE SMOOTH",
"120 716 OFFCURVE",
"106 730 OFFCURVE",
"89 730 CURVE SMOOTH",
"72 730 OFFCURVE",
"58 716 OFFCURVE",
"58 700 CURVE SMOOTH",
"58 683 OFFCURVE",
"72 669 OFFCURVE",
"89 669 CURVE SMOOTH"
);
}
);
width = 178;
},
{
layerId = "4F25946F-63AC-42D6-8D55-01CF6A99025B";
paths = (
{
closed = 1;
nodes = (
"244 0 LINE",
"244 500 LINE",
"36 500 LINE",
"36 0 LINE"
);
},
{
closed = 1;
nodes = (
"201 547 OFFCURVE",
"254 591 OFFCURVE",
"254 656 CURVE",
"254 715 OFFCURVE",
"201 763 OFFCURVE",
"140 763 CURVE SMOOTH",
"79 763 OFFCURVE",
"26 715 OFFCURVE",
"26 656 CURVE SMOOTH",
"26 595 OFFCURVE",
"77 547 OFFCURVE",
"140 547 CURVE SMOOTH"
);
}
);
width = 280;
}
);
unicode = 0069;
},
{
color = 1;
glyphname = j;
lastChange = "2016-10-18 03:01:13 +0000";
layers = (
{
layerId = "262880E7-CFE1-4BDA-902E-E24798F3240A";
paths = (
{
closed = 1;
nodes = (
"48 -211 OFFCURVE",
"100 -159 OFFCURVE",
"100 -74 CURVE SMOOTH",
"100 500 LINE",
"78 500 LINE",
"78 -74 LINE SMOOTH",
"78 -146 OFFCURVE",
"35 -190 OFFCURVE",
"-36 -190 CURVE",
"-36 -211 LINE"
);
},
{
closed = 1;
nodes = (
"108 669 OFFCURVE",
"120 681 OFFCURVE",
"120 700 CURVE SMOOTH",
"120 719 OFFCURVE",
"108 730 OFFCURVE",
"89 730 CURVE SMOOTH",
"70 730 OFFCURVE",
"58 719 OFFCURVE",
"58 700 CURVE SMOOTH",
"58 681 OFFCURVE",
"70 669 OFFCURVE",
"89 669 CURVE SMOOTH"
);
}
);
width = 178;
},
{
layerId = "4F25946F-63AC-42D6-8D55-01CF6A99025B";
paths = (
{
closed = 1;
nodes = (
"132 -236 OFFCURVE",
"245 -200 OFFCURVE",
"244 -39 CURVE",
"244 500 LINE",
"36 500 LINE",
"36 -8 LINE",
"36 -40 OFFCURVE",
"-18 -39 OFFCURVE",
"-51 -26 CURVE",
"-61 -201 LINE"
);
},
{
closed = 1;
nodes = (
"202 547 OFFCURVE",
"254 595 OFFCURVE",
"254 656 CURVE",
"254 715 OFFCURVE",
"202 763 OFFCURVE",
"140 763 CURVE SMOOTH",
"79 763 OFFCURVE",
"26 715 OFFCURVE",
"26 656 CURVE SMOOTH",
"26 595 OFFCURVE",
"77 547 OFFCURVE",
"140 547 CURVE SMOOTH"
);
}
);
width = 280;
}
);
unicode = 006A;
},
{
color = 1;
glyphname = k;
lastChange = "2016-10-18 03:15:34 +0000";
layers = (
{
layerId = "262880E7-CFE1-4BDA-902E-E24798F3240A";
paths = (
{
closed = 1;
nodes = (
"358 0 LINE",
"112 250 LINE",
"360 500 LINE",
"329 500 LINE",
"80 250 LINE",
"327 0 LINE"
);
},
{
closed = 1;
nodes = (
"100 1 LINE",
"101 700 LINE",
"79 700 LINE",
"78 1 LINE"
);
}
);
width = 403;
},
{
layerId = "4F25946F-63AC-42D6-8D55-01CF6A99025B";
paths = (
{
closed = 1;
nodes = (
"546 0 LINE",
"364 250 LINE",
"556 500 LINE",
"324 500 LINE",
"180 256 LINE",
"310 0 LINE"
);
},
{
closed = 1;
nodes = (
"224 0 LINE",
"225 700 LINE",
"37 700 LINE",
"36 0 LINE"
);
}
);
width = 542;
},
{
associatedMasterId = "4F25946F-63AC-42D6-8D55-01CF6A99025B";
layerId = "67D1648E-BAA1-4D62-B90C-A94E0FCB7E5A";
name = "DemiBold{119,100}";
paths = (
{
closed = 1;
nodes = (
"471 0 LINE",
"269 250 LINE",
"486 500 LINE",
"336 500 LINE",
"128 250 LINE",
"320 0 LINE"
);
},
{
closed = 1;
nodes = (
"176 0 LINE",
"177 700 LINE",
"56 700 LINE",
"55 0 LINE"
);
}
);
width = 478;
}
);
unicode = 006B;
},
{
color = 1;
glyphname = l;
lastChange = "2016-10-18 03:01:12 +0000";
layers = (
{
layerId = "262880E7-CFE1-4BDA-902E-E24798F3240A";
paths = (
{
closed = 1;
nodes = (
"100 -1 LINE",
"100 700 LINE",
"78 700 LINE",
"78 -1 LINE"
);
}
);
width = 178;
},
{
layerId = "4F25946F-63AC-42D6-8D55-01CF6A99025B";
paths = (
{
closed = 1;
nodes = (
"244 0 LINE",
"244 700 LINE",
"36 700 LINE",
"36 0 LINE"
);
}
);
width = 280;
}
);
unicode = 006C;
},
{
color = 1;
glyphname = m;
lastChange = "2016-10-18 03:15:52 +0000";
layers = (
{
layerId = "262880E7-CFE1-4BDA-902E-E24798F3240A";
paths = (
{
closed = 1;
nodes = (
"100 0 LINE",
"100 500 LINE",
"78 500 LINE",
"78 0 LINE"
);
},
{
closed = 1;
nodes = (
"390 0 LINE",
"390 345 LINE",
"390 445 OFFCURVE",
"329 506 OFFCURVE",
"235 506 CURVE SMOOTH",
"140 506 OFFCURVE",
"85 445 OFFCURVE",
"85 345 CURVE",
"100 345 LINE",
"100 432 OFFCURVE",
"151 485 OFFCURVE",
"234 485 CURVE SMOOTH",
"317 485 OFFCURVE",
"368 432 OFFCURVE",
"368 345 CURVE",
"368 0 LINE"
);
},
{
closed = 1;
nodes = (
"680 0 LINE",
"680 345 LINE SMOOTH",
"680 445 OFFCURVE",
"619 506 OFFCURVE",
"525 506 CURVE SMOOTH",
"430 506 OFFCURVE",
"375 445 OFFCURVE",
"375 345 CURVE",
"390 345 LINE",
"390 432 OFFCURVE",
"441 485 OFFCURVE",
"524 485 CURVE SMOOTH",
"607 485 OFFCURVE",
"658 432 OFFCURVE",
"658 345 CURVE SMOOTH",
"658 0 LINE"
);
}
);
width = 752;
},
{
layerId = "4F25946F-63AC-42D6-8D55-01CF6A99025B";
paths = (
{
closed = 1;
nodes = (
"244 0 LINE",
"244 500 LINE",
"36 500 LINE",
"36 0 LINE"
);
},
{
closed = 1;
nodes = (
"538 0 LINE",
"538 350 LINE SMOOTH",
"538 441 OFFCURVE",
"493 502 OFFCURVE",
"376 502 CURVE",
"228 502 OFFCURVE",
"179 387 OFFCURVE",
"179 286 CURVE",
"244 294 LINE",
"244 321 OFFCURVE",
"261 339 OFFCURVE",
"287 339 CURVE SMOOTH",
"313 339 OFFCURVE",
"331 321 OFFCURVE",
"331 294 CURVE SMOOTH",
"331 0 LINE"
);
},
{
closed = 1;
nodes = (
"832 0 LINE",
"832 350 LINE SMOOTH",
"832 441 OFFCURVE",
"784 502 OFFCURVE",
"666 502 CURVE",
"522 502 OFFCURVE",
"473 387 OFFCURVE",
"473 286 CURVE",
"538 294 LINE",
"538 321 OFFCURVE",
"555 339 OFFCURVE",
"581 339 CURVE SMOOTH",
"607 339 OFFCURVE",
"625 321 OFFCURVE",
"625 294 CURVE SMOOTH",
"625 0 LINE"
);
}
);
width = 861;
},
{
associatedMasterId = "4F25946F-63AC-42D6-8D55-01CF6A99025B";
layerId = "F5ED04A7-6D5C-4CB3-8E75-4B337E8B4478";
name = "Medium {91, 100}";
paths = (
{
closed = 1;
nodes = (
"154 0 LINE",
"154 500 LINE",
"62 500 LINE",
"62 0 LINE"
);
},
{
closed = 1;
nodes = (
"438 0 LINE",
"438 350 LINE SMOOTH",
"438 447 OFFCURVE",
"386 510 OFFCURVE",
"285 510 CURVE SMOOTH",
"173 510 OFFCURVE",
"116 440 OFFCURVE",
"116 336 CURVE",
"154 336 LINE",
"154 396 OFFCURVE",
"191 433 OFFCURVE",
"250 433 CURVE SMOOTH",
"309 433 OFFCURVE",
"346 396 OFFCURVE",
"346 336 CURVE SMOOTH",
"346 0 LINE"
);
},
{
closed = 1;
nodes = (
"722 0 LINE",
"722 350 LINE SMOOTH",
"722 447 OFFCURVE",
"670 510 OFFCURVE",
"569 510 CURVE SMOOTH",
"457 510 OFFCURVE",
"400 440 OFFCURVE",
"400 336 CURVE",
"438 336 LINE",
"438 396 OFFCURVE",
"475 433 OFFCURVE",
"534 433 CURVE SMOOTH",
"593 433 OFFCURVE",
"630 396 OFFCURVE",
"630 336 CURVE SMOOTH",
"630 0 LINE"
);
}
);
width = 793;
}
);
unicode = 006D;
},
{
color = 1;
glyphname = n;
lastChange = "2016-10-18 03:16:26 +0000";
layers = (
{
layerId = "262880E7-CFE1-4BDA-902E-E24798F3240A";
paths = (
{
closed = 1;
nodes = (
"383 0 LINE",
"383 344 LINE SMOOTH",
"383 444 OFFCURVE",
"322 504 OFFCURVE",
"223 504 CURVE SMOOTH",
"127 504 OFFCURVE",
"68 443 OFFCURVE",
"68 343 CURVE",
"83 343 LINE",
"83 430 OFFCURVE",
"136 483 OFFCURVE",
"222 483 CURVE SMOOTH",
"308 483 OFFCURVE",
"361 430 OFFCURVE",
"361 343 CURVE SMOOTH",
"361 0 LINE"
);
},
{
closed = 1;
nodes = (
"83 0 LINE",
"83 496 LINE",
"61 496 LINE",
"61 0 LINE"
);
}
);
width = 435;
},
{
layerId = "4F25946F-63AC-42D6-8D55-01CF6A99025B";
paths = (
{
closed = 1;
nodes = (
"538 0 LINE",
"538 350 LINE SMOOTH",
"538 441 OFFCURVE",
"493 502 OFFCURVE",
"376 502 CURVE",
"228 502 OFFCURVE",
"179 387 OFFCURVE",
"179 286 CURVE",
"244 294 LINE",
"244 321 OFFCURVE",
"261 339 OFFCURVE",
"287 339 CURVE SMOOTH",
"313 339 OFFCURVE",
"331 321 OFFCURVE",
"331 294 CURVE SMOOTH",
"331 0 LINE"
);
},
{
closed = 1;
nodes = (
"244 0 LINE",
"244 500 LINE",
"36 500 LINE",
"36 0 LINE"
);
}
);
width = 567;
},
{
associatedMasterId = "4F25946F-63AC-42D6-8D55-01CF6A99025B";
layerId = "48EED9EC-BBC9-457D-A249-2E4341C899C3";
name = "Medium {91, 100}";
paths = (
{
closed = 1;
nodes = (
"443 0 LINE",
"443 346 LINE SMOOTH",
"443 443 OFFCURVE",
"382 506 OFFCURVE",
"278 506 CURVE SMOOTH",
"160 506 OFFCURVE",
"92 425 OFFCURVE",
"92 325 CURVE",
"145 325 LINE",
"145 389 OFFCURVE",
"184 429 OFFCURVE",
"247 429 CURVE SMOOTH",
"311 429 OFFCURVE",
"350 389 OFFCURVE",
"350 325 CURVE SMOOTH",
"350 0 LINE"
);
},
{
closed = 1;
nodes = (
"145 0 LINE",
"145 498 LINE",
"52 498 LINE",
"52 0 LINE"
);
}
);
width = 485;
}
);
unicode = 006E;
},
{
color = 1;
glyphname = o;
lastChange = "2016-10-18 03:16:35 +0000";
layers = (
{
layerId = "262880E7-CFE1-4BDA-902E-E24798F3240A";
paths = (
{
closed = 1;
nodes = (
"327 -5 OFFCURVE",
"388 56 OFFCURVE",
"388 156 CURVE SMOOTH",
"388 344 LINE SMOOTH",
"388 444 OFFCURVE",
"327 505 OFFCURVE",
"227 505 CURVE SMOOTH",
"127 505 OFFCURVE",
"66 444 OFFCURVE",
"66 344 CURVE SMOOTH",
"66 156 LINE SMOOTH",
"66 56 OFFCURVE",
"127 -5 OFFCURVE",
"227 -5 CURVE SMOOTH"
);
},
{
closed = 1;
nodes = (
"141 17 OFFCURVE",
"88 70 OFFCURVE",
"88 156 CURVE SMOOTH",
"88 344 LINE SMOOTH",
"88 431 OFFCURVE",
"141 484 OFFCURVE",
"227 484 CURVE SMOOTH",
"313 484 OFFCURVE",
"366 431 OFFCURVE",
"366 344 CURVE SMOOTH",
"366 156 LINE SMOOTH",
"366 70 OFFCURVE",
"313 17 OFFCURVE",
"227 17 CURVE SMOOTH"
);
}
);
width = 454;
},
{
layerId = "4F25946F-63AC-42D6-8D55-01CF6A99025B";
paths = (
{
closed = 1;
nodes = (
"413 -3 OFFCURVE",
"515 73 OFFCURVE",
"523 188 CURVE",
"523 325 LINE",
"521 432 OFFCURVE",
"419 503 OFFCURVE",
"267 503 CURVE SMOOTH",
"115 503 OFFCURVE",
"13 432 OFFCURVE",
"13 325 CURVE SMOOTH",
"13 188 LINE SMOOTH",
"13 73 OFFCURVE",
"115 -3 OFFCURVE",
"264 -3 CURVE SMOOTH"
);
},
{
closed = 1;
nodes = (
"242 166 OFFCURVE",
"225 182 OFFCURVE",
"225 207 CURVE SMOOTH",
"225 297 LINE SMOOTH",
"225 322 OFFCURVE",
"242 338 OFFCURVE",
"268 338 CURVE SMOOTH",
"294 338 OFFCURVE",
"312 322 OFFCURVE",
"312 297 CURVE SMOOTH",
"312 207 LINE SMOOTH",
"312 182 OFFCURVE",
"294 166 OFFCURVE",
"268 166 CURVE SMOOTH"
);
}
);
width = 535;
}
);
unicode = 006F;
},
{
color = 1;
glyphname = p;
lastChange = "2016-10-18 03:01:13 +0000";
layers = (
{
layerId = "262880E7-CFE1-4BDA-902E-E24798F3240A";
paths = (
{
closed = 1;
nodes = (
"340 -7 OFFCURVE",
"400 54 OFFCURVE",
"400 154 CURVE SMOOTH",
"400 346 LINE SMOOTH",
"400 446 OFFCURVE",
"340 507 OFFCURVE",
"242 507 CURVE SMOOTH",
"144 507 OFFCURVE",
"80 444 OFFCURVE",
"80 344 CURVE SMOOTH",
"80 156 LINE SMOOTH",
"80 56 OFFCURVE",
"144 -7 OFFCURVE",
"242 -7 CURVE SMOOTH"
);
},
{
closed = 1;
nodes = (
"100 -200 LINE",
"100 500 LINE",
"78 500 LINE",
"78 -200 LINE"
);
},
{
closed = 1;
nodes = (
"153 14 OFFCURVE",
"100 67 OFFCURVE",
"100 154 CURVE SMOOTH",
"100 346 LINE SMOOTH",
"100 432 OFFCURVE",
"153 485 OFFCURVE",
"239 485 CURVE SMOOTH",
"325 485 OFFCURVE",
"378 432 OFFCURVE",
"378 346 CURVE SMOOTH",
"378 154 LINE SMOOTH",
"378 67 OFFCURVE",
"325 14 OFFCURVE",
"239 14 CURVE SMOOTH"
);
}
);
width = 466;
},
{
layerId = "4F25946F-63AC-42D6-8D55-01CF6A99025B";
paths = (
{
closed = 1;
nodes = (
"475 0 OFFCURVE",
"537 61 OFFCURVE",
"537 152 CURVE SMOOTH",
"537 350 LINE SMOOTH",
"537 441 OFFCURVE",
"492 502 OFFCURVE",
"371 502 CURVE SMOOTH",
"213 502 OFFCURVE",
"182 396 OFFCURVE",
"178 298 CURVE",
"178 208 LINE SMOOTH",
"178 118 OFFCURVE",
"222 0 OFFCURVE",
"369 0 CURVE SMOOTH"
);
},
{
closed = 1;
nodes = (
"244 -200 LINE",
"244 502 LINE",
"36 502 LINE",
"36 -200 LINE"
);
},
{
closed = 1;
nodes = (
"260 163 OFFCURVE",
"243 181 OFFCURVE",
"243 208 CURVE SMOOTH",
"243 294 LINE SMOOTH",
"243 321 OFFCURVE",
"260 339 OFFCURVE",
"286 339 CURVE SMOOTH",
"312 339 OFFCURVE",
"330 321 OFFCURVE",
"330 294 CURVE SMOOTH",
"330 208 LINE SMOOTH",
"330 181 OFFCURVE",
"312 163 OFFCURVE",
"286 163 CURVE SMOOTH"
);
}
);
width = 558;
}
);
unicode = 0070;
},
{
color = 1;
glyphname = r;
lastChange = "2016-10-18 03:01:12 +0000";
layers = (
{
layerId = "262880E7-CFE1-4BDA-902E-E24798F3240A";
paths = (
{
closed = 1;
nodes = (
"100 331 LINE",
"100 418 OFFCURVE",
"150 483 OFFCURVE",
"232 483 CURVE SMOOTH",
"242 483 OFFCURVE",
"259 479 OFFCURVE",
"268 475 CURVE",
"285 488 LINE",
"271 496 OFFCURVE",
"251 502 OFFCURVE",
"232 502 CURVE SMOOTH",
"137 502 OFFCURVE",
"84 429 OFFCURVE",
"84 331 CURVE"
);
},
{
closed = 1;
nodes = (
"100 -1 LINE",
"100 500 LINE",
"78 500 LINE",
"78 -1 LINE"
);
}
);
width = 326;
},
{
layerId = "4F25946F-63AC-42D6-8D55-01CF6A99025B";
paths = (
{
closed = 1;
nodes = (
"244 248 LINE",
"244 282 OFFCURVE",
"284 299 OFFCURVE",
"316 299 CURVE SMOOTH",
"339 299 OFFCURVE",
"373 290 OFFCURVE",
"378 281 CURVE",
"420 464 LINE",
"417 483 OFFCURVE",
"395 504 OFFCURVE",
"350 504 CURVE SMOOTH",
"234 504 OFFCURVE",
"180 363 OFFCURVE",
"180 248 CURVE"
);
},
{
closed = 1;
nodes = (
"244 0 LINE",
"244 500 LINE",
"36 500 LINE",
"36 0 LINE"
);
}
);
width = 415;
},
{
associatedMasterId = "262880E7-CFE1-4BDA-902E-E24798F3240A";
layerId = "42CC11FC-6CFD-42F7-A362-E84ACC39CCA1";
name = "Medium{91,100}";
paths = (
{
closed = 1;
nodes = (
"191 307 LINE",
"191 374 OFFCURVE",
"237 420 OFFCURVE",
"302 420 CURVE SMOOTH",
"315 420 OFFCURVE",
"339 415 OFFCURVE",
"346 409 CURVE",
"373 479 LINE",
"363 492 OFFCURVE",
"341 503 OFFCURVE",
"313 503 CURVE SMOOTH",
"210 503 OFFCURVE",
"137 411 OFFCURVE",
"137 307 CURVE"
);
},
{
closed = 1;
nodes = (
"191 -1 LINE",
"191 500 LINE",
"99 500 LINE",
"99 -1 LINE"
);
}
);
width = 405;
}
);
unicode = 0072;
},
{
color = 1;
glyphname = s;
lastChange = "2016-10-18 03:01:13 +0000";
layers = (
{
layerId = "262880E7-CFE1-4BDA-902E-E24798F3240A";
paths = (
{
closed = 1;
nodes = (
"312 -3 OFFCURVE",
"379 47 OFFCURVE",
"379 126 CURVE SMOOTH",
"379 214 OFFCURVE",
"295 237 OFFCURVE",
"215 265 CURVE SMOOTH",
"126 296 OFFCURVE",
"77 311 OFFCURVE",
"77 372 CURVE SMOOTH",
"77 437 OFFCURVE",
"133 484 OFFCURVE",
"216 484 CURVE SMOOTH",
"299 484 OFFCURVE",
"355 438 OFFCURVE",
"355 369 CURVE SMOOTH",
"355 368 LINE",
"377 368 LINE",
"377 369 LINE SMOOTH",
"377 451 OFFCURVE",
"313 503 OFFCURVE",
"216 503 CURVE SMOOTH",
"119 503 OFFCURVE",
"55 450 OFFCURVE",
"55 372 CURVE SMOOTH",
"55 290 OFFCURVE",
"126 271 OFFCURVE",
"211 241 CURVE SMOOTH",
"287 214 OFFCURVE",
"357 196 OFFCURVE",
"357 126 CURVE SMOOTH",
"357 61 OFFCURVE",
"298 17 OFFCURVE",
"214 17 CURVE SMOOTH",
"130 17 OFFCURVE",
"75 60 OFFCURVE",
"75 126 CURVE SMOOTH",
"75 127 LINE",
"53 127 LINE",
"53 126 LINE SMOOTH",
"53 48 OFFCURVE",
"116 -3 OFFCURVE",
"214 -3 CURVE SMOOTH"
);
}
);
width = 432;
},
{
layerId = "4F25946F-63AC-42D6-8D55-01CF6A99025B";
paths = (
{
closed = 1;
nodes = (
"397 -10 OFFCURVE",
"482 62 OFFCURVE",
"482 151 CURVE SMOOTH",
"482 216 OFFCURVE",
"437 270 OFFCURVE",
"346 296 CURVE SMOOTH",
"286 313 OFFCURVE",
"210 318 OFFCURVE",
"210 351 CURVE SMOOTH",
"210 364 OFFCURVE",
"223 378 OFFCURVE",
"243 378 CURVE SMOOTH",
"263 378 OFFCURVE",
"279 364 OFFCURVE",
"279 341 CURVE",
"280 331 LINE",
"474 331 LINE",
"474 341 LINE",
"470 439 OFFCURVE",
"385 510 OFFCURVE",
"239 510 CURVE SMOOTH",
"91 510 OFFCURVE",
"7 437 OFFCURVE",
"7 353 CURVE SMOOTH",
"7 292 OFFCURVE",
"51 235 OFFCURVE",
"145 208 CURVE SMOOTH",
"201 192 OFFCURVE",
"273 187 OFFCURVE",
"273 149 CURVE SMOOTH",
"273 136 OFFCURVE",
"265 123 OFFCURVE",
"243 123 CURVE SMOOTH",
"224 123 OFFCURVE",
"209 133 OFFCURVE",
"205 155 CURVE SMOOTH",
"202 172 LINE",
"6 172 LINE",
"6 162 LINE",
"6 66 OFFCURVE",
"97 -10 OFFCURVE",
"249 -10 CURVE SMOOTH"
);
}
);
width = 486;
},
{
associatedMasterId = "262880E7-CFE1-4BDA-902E-E24798F3240A";
layerId = "677A5083-0B4E-4805-9AE1-F115960A3564";
name = "Semi Bold{101, 100}";
paths = (
{
closed = 1;
nodes = (
"365 -10 OFFCURVE",
"436 51 OFFCURVE",
"436 137 CURVE SMOOTH",
"436 213 OFFCURVE",
"381 258 OFFCURVE",
"297 286 CURVE SMOOTH",
"238 306 OFFCURVE",
"170 313 OFFCURVE",
"170 363 CURVE SMOOTH",
"170 395 OFFCURVE",
"199 424 OFFCURVE",
"246 424 CURVE SMOOTH",
"291 424 OFFCURVE",
"323 399 OFFCURVE",
"324 358 CURVE SMOOTH",
"324 352 LINE",
"431 352 LINE",
"431 358 LINE SMOOTH",
"431 446 OFFCURVE",
"360 510 OFFCURVE",
"245 510 CURVE SMOOTH",
"130 510 OFFCURVE",
"61 447 OFFCURVE",
"61 363 CURVE SMOOTH",
"61 291 OFFCURVE",
"113 248 OFFCURVE",
"197 219 CURVE SMOOTH",
"255 199 OFFCURVE",
"323 189 OFFCURVE",
"323 137 CURVE SMOOTH",
"323 100 OFFCURVE",
"290 75 OFFCURVE",
"245 75 CURVE SMOOTH",
"199 75 OFFCURVE",
"169 100 OFFCURVE",
"169 137 CURVE SMOOTH",
"169 146 LINE",
"59 146 LINE",
"59 141 LINE SMOOTH",
"59 54 OFFCURVE",
"132 -10 OFFCURVE",
"250 -10 CURVE SMOOTH"
);
}
);
width = 494;
}
);
unicode = 0073;
},
{
color = 1;
glyphname = t;
lastChange = "2016-10-18 03:01:12 +0000";
layers = (
{
layerId = "262880E7-CFE1-4BDA-902E-E24798F3240A";
paths = (
{
closed = 1;
nodes = (
"256 2 LINE",
"256 24 LINE",
"232 24 LINE SMOOTH",
"151 24 OFFCURVE",
"128 59 OFFCURVE",
"128 155 CURVE SMOOTH",
"128 479 LINE",
"242 479 LINE",
"242 500 LINE",
"128 500 LINE",
"128 610 LINE",
"106 610 LINE",
"106 500 LINE",
"42 500 LINE",
"42 479 LINE",
"106 479 LINE",
"106 155 LINE SMOOTH",
"106 45 OFFCURVE",
"138 2 OFFCURVE",
"232 2 CURVE SMOOTH"
);
}
);
width = 299;
},
{
layerId = "4F25946F-63AC-42D6-8D55-01CF6A99025B";
paths = (
{
closed = 1;
nodes = (
"301 1 LINE",
"307 181 LINE",
"304 181 LINE",
"266 177 OFFCURVE",
"244 172 OFFCURVE",
"244 203 CURVE SMOOTH",
"244 326 LINE",
"324 326 LINE",
"324 500 LINE",
"244 500 LINE",
"244 700 LINE",
"50 700 LINE",
"50 500 LINE",
"6 500 LINE",
"6 326 LINE",
"50 326 LINE",
"50 163 LINE SMOOTH",
"50 3 OFFCURVE",
"113 -24 OFFCURVE",
"295 1 CURVE"
);
}
);
width = 339;
}
);
unicode = 0074;
},
{
color = 1;
glyphname = u;
lastChange = "2016-10-18 03:17:22 +0000";
layers = (
{
layerId = "262880E7-CFE1-4BDA-902E-E24798F3240A";
paths = (
{
closed = 1;
nodes = (
"330 -3 OFFCURVE",
"389 58 OFFCURVE",
"389 157 CURVE",
"372 157 LINE",
"372 70 OFFCURVE",
"319 17 OFFCURVE",
"233 17 CURVE SMOOTH",
"147 17 OFFCURVE",
"94 70 OFFCURVE",
"94 157 CURVE SMOOTH",
"94 500 LINE",
"72 500 LINE",
"72 156 LINE SMOOTH",
"72 57 OFFCURVE",
"133 -3 OFFCURVE",
"233 -3 CURVE SMOOTH"
);
},
{
closed = 1;
nodes = (
"394 0 LINE",
"394 500 LINE",
"372 500 LINE",
"372 0 LINE"
);
}
);
width = 472;
},
{
layerId = "4F25946F-63AC-42D6-8D55-01CF6A99025B";
paths = (
{
closed = 1;
nodes = (
"343 -2 OFFCURVE",
"390 96 OFFCURVE",
"390 196 CURVE",
"325 188 LINE",
"325 165 OFFCURVE",
"307 150 OFFCURVE",
"281 150 CURVE SMOOTH",
"255 150 OFFCURVE",
"238 165 OFFCURVE",
"238 188 CURVE SMOOTH",
"238 500 LINE",
"30 500 LINE",
"30 150 LINE SMOOTH",
"30 49 OFFCURVE",
"79 -2 OFFCURVE",
"190 -2 CURVE SMOOTH"
);
},
{
closed = 1;
nodes = (
"532 0 LINE",
"532 500 LINE",
"325 500 LINE",
"325 0 LINE"
);
}
);
width = 568;
},
{
associatedMasterId = "4F25946F-63AC-42D6-8D55-01CF6A99025B";
layerId = "47FA07B0-C6A0-4AEE-ADEB-F55ADBF433D4";
name = "Medium{91,100}";
paths = (
{
closed = 1;
nodes = (
"335 -3 OFFCURVE",
"399 69 OFFCURVE",
"399 169 CURVE",
"354 169 LINE",
"354 106 OFFCURVE",
"314 68 OFFCURVE",
"251 68 CURVE SMOOTH",
"188 68 OFFCURVE",
"149 106 OFFCURVE",
"149 169 CURVE SMOOTH",
"149 500 LINE",
"56 500 LINE",
"56 154 LINE SMOOTH",
"56 54 OFFCURVE",
"112 -3 OFFCURVE",
"217 -3 CURVE SMOOTH"
);
},
{
closed = 1;
nodes = (
"446 0 LINE",
"446 500 LINE",
"354 500 LINE",
"354 0 LINE"
);
}
);
width = 508;
}
);
unicode = 0075;
},
{
color = 1;
glyphname = v;
lastChange = "2016-10-18 03:01:13 +0000";
layers = (
{
layerId = "262880E7-CFE1-4BDA-902E-E24798F3240A";
paths = (
{
closed = 1;
nodes = (
"231 3 LINE",
"396 500 LINE",
"374 500 LINE",
"220 38 LINE",
"66 500 LINE",
"44 500 LINE",
"209 3 LINE"
);
}
);
width = 440;
},
{
layerId = "4F25946F-63AC-42D6-8D55-01CF6A99025B";
paths = (
{
closed = 1;
nodes = (
"345 0 LINE",
"509 500 LINE",
"298 500 LINE",
"249 257 LINE",
"200 500 LINE",
"-11 500 LINE",
"153 0 LINE"
);
}
);
width = 498;
},
{
associatedMasterId = "262880E7-CFE1-4BDA-902E-E24798F3240A";
layerId = "30C42329-3409-4879-A8EC-0B65B1A31C66";
name = "Medium { 91, 100}";
paths = (
{
closed = 1;
nodes = (
"285 0 LINE",
"442 500 LINE",
"349 500 LINE",
"241 129 LINE",
"133 500 LINE",
"41 500 LINE",
"198 0 LINE"
);
}
);
width = 483;
}
);
unicode = 0076;
},
{
color = 1;
glyphname = w;
lastChange = "2016-10-18 03:01:13 +0000";
layers = (
{
layerId = "262880E7-CFE1-4BDA-902E-E24798F3240A";
paths = (
{
closed = 1;
nodes = (
"202 0 LINE",
"326 458 LINE",
"450 0 LINE",
"472 0 LINE",
"607 500 LINE",
"585 500 LINE",
"461 42 LINE",
"337 500 LINE",
"315 500 LINE",
"191 42 LINE",
"67 500 LINE",
"45 500 LINE",
"180 0 LINE"
);
}
);
width = 652;
},
{
layerId = "4F25946F-63AC-42D6-8D55-01CF6A99025B";
paths = (
{
closed = 1;
nodes = (
"303 0 LINE",
"336 240 LINE",
"373 0 LINE",
"563 0 LINE",
"683 500 LINE",
"489 500 LINE",
"456 287 LINE",
"420 500 LINE",
"250 500 LINE",
"215 287 LINE",
"180 500 LINE",
"-7 500 LINE",
"112 0 LINE"
);
}
);
width = 676;
}
);
unicode = 0077;
},
{
color = 1;
glyphname = x;
lastChange = "2016-10-18 03:01:13 +0000";
layers = (
{
layerId = "262880E7-CFE1-4BDA-902E-E24798F3240A";
paths = (
{
closed = 1;
nodes = (
"374 501 LINE",
"220 267 LINE",
"66 501 LINE",
"44 501 LINE",
"209 250 LINE",
"44 -1 LINE",
"66 -1 LINE",
"220 233 LINE",
"374 -1 LINE",
"396 -1 LINE",
"231 250 LINE",
"396 501 LINE"
);
}
);
width = 440;
},
{
layerId = "4F25946F-63AC-42D6-8D55-01CF6A99025B";
paths = (
{
closed = 1;
nodes = (
"301 500 LINE",
"256 411 LINE",
"212 500 LINE",
"-10 500 LINE",
"148 250 LINE",
"-10 0 LINE",
"212 0 LINE",
"256 89 LINE",
"301 0 LINE",
"522 0 LINE",
"365 250 LINE",
"522 500 LINE"
);
}
);
width = 512;
},
{
associatedMasterId = "262880E7-CFE1-4BDA-902E-E24798F3240A";
layerId = "A7F0FF68-370D-4ABA-A088-97B4F33DE289";
name = "Light Oct 15 16, 02:53";
paths = (
{
closed = 1;
nodes = (
"368 501 LINE",
"390 501 LINE",
"60 -1 LINE",
"38 -1 LINE"
);
},
{
closed = 1;
nodes = (
"38 501 LINE",
"60 501 LINE",
"390 -1 LINE",
"368 -1 LINE"
);
}
);
width = 428;
},
{
associatedMasterId = "4F25946F-63AC-42D6-8D55-01CF6A99025B";
layerId = "C8E6816F-D14D-432C-92C0-4654658DD355";
name = "Bold Oct 15 16, 02:53";
paths = (
{
closed = 1;
nodes = (
"306 500 LINE",
"527 500 LINE",
"217 0 LINE",
"-5 0 LINE"
);
},
{
closed = 1;
nodes = (
"-5 500 LINE",
"217 500 LINE",
"527 0 LINE",
"306 0 LINE"
);
}
);
width = 522;
}
);
unicode = 0078;
},
{
color = 1;
glyphname = y;
lastChange = "2016-10-18 03:01:13 +0000";
layers = (
{
layerId = "262880E7-CFE1-4BDA-902E-E24798F3240A";
paths = (
{
closed = 1;
nodes = (
"221 33 LINE",
"66 500 LINE",
"44 500 LINE",
"210 -1 LINE",
"188 -67 LINE SMOOTH",
"154 -169 OFFCURVE",
"131 -190 OFFCURVE",
"68 -190 CURVE",
"68 -211 LINE",
"143 -211 OFFCURVE",
"175 -184 OFFCURVE",
"208 -73 CURVE SMOOTH",
"398 500 LINE",
"376 500 LINE"
);
}
);
width = 442;
},
{
layerId = "4F25946F-63AC-42D6-8D55-01CF6A99025B";
paths = (
{
closed = 1;
nodes = (
"240 321 LINE",
"194 500 LINE",
"-14 500 LINE",
"149 106 LINE",
"141 82 LINE SMOOTH",
"128 42 OFFCURVE",
"113 30 OFFCURVE",
"55 30 CURVE",
"55 -128 LINE",
"221 -128 OFFCURVE",
"279 -72 OFFCURVE",
"319 35 CURVE SMOOTH",
"494 500 LINE",
"286 500 LINE"
);
}
);
width = 481;
}
);
unicode = 0079;
},
{
color = 1;
glyphname = z;
lastChange = "2016-10-18 03:17:47 +0000";
layers = (
{
layerId = "262880E7-CFE1-4BDA-902E-E24798F3240A";
paths = (
{
closed = 1;
nodes = (
"363 1 LINE",
"363 23 LINE",
"70 23 LINE",
"374 478 LINE",
"374 499 LINE",
"51 499 LINE",
"51 478 LINE",
"350 478 LINE",
"46 23 LINE",
"46 1 LINE"
);
}
);
width = 419;
},
{
layerId = "4F25946F-63AC-42D6-8D55-01CF6A99025B";
paths = (
{
closed = 1;
nodes = (
"437 10 LINE",
"437 157 LINE",
"262 157 LINE",
"441 348 LINE",
"441 496 LINE",
"20 496 LINE",
"20 348 LINE",
"208 347 LINE",
"21 157 LINE",
"20 10 LINE"
);
}
);
width = 460;
},
{
associatedMasterId = "4F25946F-63AC-42D6-8D55-01CF6A99025B";
layerId = "516F1C78-99C1-4D19-A6A1-804BC5CB958E";
name = "Demibold {119,100}";
paths = (
{
closed = 1;
nodes = (
"389 6 LINE",
"389 113 LINE",
"183 113 LINE",
"391 386 LINE",
"391 497 LINE",
"32 497 LINE",
"32 386 LINE",
"255 386 LINE",
"42 113 LINE",
"42 6 LINE"
);
}
);
width = 441;
}
);
unicode = 007A;
},
{
color = 1;
glyphname = zero;
lastChange = "2016-10-18 03:01:12 +0000";
layers = (
{
layerId = "262880E7-CFE1-4BDA-902E-E24798F3240A";
paths = (
{
closed = 1;
nodes = (
"350 -9 OFFCURVE",
"405 45 OFFCURVE",
"405 150 CURVE SMOOTH",
"405 550 LINE SMOOTH",
"405 655 OFFCURVE",
"350 709 OFFCURVE",
"245 709 CURVE SMOOTH",
"140 709 OFFCURVE",
"85 655 OFFCURVE",
"85 550 CURVE SMOOTH",
"85 150 LINE SMOOTH",
"85 45 OFFCURVE",
"140 -9 OFFCURVE",
"245 -9 CURVE SMOOTH"
);
},
{
closed = 1;
nodes = (
"154 11 OFFCURVE",
"107 58 OFFCURVE",
"107 150 CURVE SMOOTH",
"107 550 LINE SMOOTH",
"107 642 OFFCURVE",
"154 690 OFFCURVE",
"245 690 CURVE SMOOTH",
"336 690 OFFCURVE",
"383 642 OFFCURVE",
"383 550 CURVE SMOOTH",
"383 150 LINE SMOOTH",
"383 58 OFFCURVE",
"336 11 OFFCURVE",
"245 11 CURVE SMOOTH"
);
}
);
width = 490;
},
{
layerId = "4F25946F-63AC-42D6-8D55-01CF6A99025B";
paths = (
{
closed = 1;
nodes = (
"456 -10 OFFCURVE",
"544 73 OFFCURVE",
"544 233 CURVE SMOOTH",
"544 467 LINE SMOOTH",
"544 627 OFFCURVE",
"456 710 OFFCURVE",
"284 710 CURVE SMOOTH",
"112 710 OFFCURVE",
"24 627 OFFCURVE",
"24 467 CURVE SMOOTH",
"24 233 LINE SMOOTH",
"24 73 OFFCURVE",
"112 -10 OFFCURVE",
"284 -10 CURVE SMOOTH"
);
},
{
closed = 1;
nodes = (
"255 174 OFFCURVE",
"236 194 OFFCURVE",
"236 223 CURVE SMOOTH",
"236 477 LINE SMOOTH",
"236 506 OFFCURVE",
"255 526 OFFCURVE",
"284 526 CURVE SMOOTH",
"313 526 OFFCURVE",
"332 506 OFFCURVE",
"332 477 CURVE SMOOTH",
"332 223 LINE SMOOTH",
"332 194 OFFCURVE",
"313 174 OFFCURVE",
"284 174 CURVE SMOOTH"
);
}
);
width = 568;
}
);
unicode = 0030;
},
{
color = 1;
glyphname = one;
lastChange = "2016-10-18 03:01:13 +0000";
layers = (
{
layerId = "4F25946F-63AC-42D6-8D55-01CF6A99025B";
paths = (
{
closed = 1;
nodes = (
"276 0 LINE",
"276 700 LINE",
"64 700 LINE",
"64 0 LINE"
);
},
{
closed = 1;
nodes = (
"1 512 LINE",
"64 512 LINE",
"64 700 LINE",
"1 674 LINE"
);
}
);
width = 320;
},
{
layerId = "262880E7-CFE1-4BDA-902E-E24798F3240A";
paths = (
{
closed = 1;
nodes = (
"120 0 LINE",
"120 700 LINE",
"98 700 LINE",
"98 0 LINE"
);
},
{
closed = 1;
nodes = (
"57 646 LINE",
"98 662 LINE",
"98 700 LINE",
"57 668 LINE"
);
}
);
width = 214;
}
);
unicode = 0031;
},
{
color = 1;
glyphname = two;
lastChange = "2016-10-18 03:01:12 +0000";
layers = (
{
layerId = "4F25946F-63AC-42D6-8D55-01CF6A99025B";
paths = (
{
closed = 1;
nodes = (
"515 0 LINE",
"515 188 LINE",
"268 188 LINE",
"499 447 LINE",
"516 475 OFFCURVE",
"527 500 OFFCURVE",
"527 534 CURVE SMOOTH",
"527 633 OFFCURVE",
"432 700 OFFCURVE",
"275 700 CURVE SMOOTH",
"116 700 OFFCURVE",
"15 631 OFFCURVE",
"15 519 CURVE",
"15 454 LINE",
"223 455 LINE",
"223 481 LINE",
"223 506 OFFCURVE",
"240 523 OFFCURVE",
"265 523 CURVE SMOOTH",
"293 523 OFFCURVE",
"305 502 OFFCURVE",
"305 489 CURVE SMOOTH",
"305 474 OFFCURVE",
"291 455 OFFCURVE",
"266 426 CURVE",
"18 171 LINE",
"18 0 LINE"
);
}
);
width = 539;
},
{
layerId = "262880E7-CFE1-4BDA-902E-E24798F3240A";
paths = (
{
closed = 1;
nodes = (
"397 0 LINE",
"397 22 LINE",
"94 22 LINE",
"334 364 LINE SMOOTH",
"372 419 OFFCURVE",
"396 470 OFFCURVE",
"396 530 CURVE SMOOTH",
"396 615 OFFCURVE",
"347 710 OFFCURVE",
"233 710 CURVE SMOOTH",
"128 710 OFFCURVE",
"65 635 OFFCURVE",
"65 500 CURVE",
"65 479 LINE",
"86 479 LINE",
"86 500 LINE SMOOTH",
"86 618 OFFCURVE",
"141 690 OFFCURVE",
"232 690 CURVE SMOOTH",
"320 690 OFFCURVE",
"375 622 OFFCURVE",
"375 530 CURVE SMOOTH",
"375 478 OFFCURVE",
"357 434 OFFCURVE",
"329 395 CURVE SMOOTH",
"66 21 LINE",
"65 0 LINE"
);
}
);
width = 462;
}
);
unicode = 0032;
},
{
color = 1;
glyphname = eight;
lastChange = "2016-10-18 03:01:13 +0000";
layers = (
{
layerId = "262880E7-CFE1-4BDA-902E-E24798F3240A";
paths = (
{
closed = 1;
nodes = (
"344 364 OFFCURVE",
"399 418 OFFCURVE",
"399 523 CURVE SMOOTH",
"399 548 LINE SMOOTH",
"399 653 OFFCURVE",
"344 707 OFFCURVE",
"239 707 CURVE SMOOTH",
"134 707 OFFCURVE",
"79 653 OFFCURVE",
"79 548 CURVE SMOOTH",
"79 523 LINE SMOOTH",
"79 418 OFFCURVE",
"134 364 OFFCURVE",
"239 364 CURVE SMOOTH"
);
},
{
closed = 1;
nodes = (
"148 384 OFFCURVE",
"101 431 OFFCURVE",
"101 523 CURVE SMOOTH",
"101 548 LINE SMOOTH",
"101 640 OFFCURVE",
"148 688 OFFCURVE",
"239 688 CURVE SMOOTH",
"330 688 OFFCURVE",
"377 640 OFFCURVE",
"377 548 CURVE SMOOTH",
"377 523 LINE SMOOTH",
"377 431 OFFCURVE",
"330 384 OFFCURVE",
"239 384 CURVE SMOOTH"
);
},
{
closed = 1;
nodes = (
"344 -18 OFFCURVE",
"399 36 OFFCURVE",
"399 141 CURVE SMOOTH",
"399 225 LINE SMOOTH",
"399 330 OFFCURVE",
"344 384 OFFCURVE",
"239 384 CURVE SMOOTH",
"134 384 OFFCURVE",
"79 330 OFFCURVE",
"79 225 CURVE SMOOTH",
"79 141 LINE SMOOTH",
"79 36 OFFCURVE",
"134 -18 OFFCURVE",
"239 -18 CURVE SMOOTH"
);
},
{
closed = 1;
nodes = (
"148 2 OFFCURVE",
"101 49 OFFCURVE",
"101 141 CURVE SMOOTH",
"101 225 LINE SMOOTH",
"101 317 OFFCURVE",
"148 365 OFFCURVE",
"239 365 CURVE SMOOTH",
"330 365 OFFCURVE",
"377 317 OFFCURVE",
"377 225 CURVE SMOOTH",
"377 141 LINE SMOOTH",
"377 49 OFFCURVE",
"330 2 OFFCURVE",
"239 2 CURVE SMOOTH"
);
}
);
width = 478;
},
{
layerId = "4F25946F-63AC-42D6-8D55-01CF6A99025B";
paths = (
{
closed = 1;
nodes = (
"311 337 OFFCURVE",
"502 343 OFFCURVE",
"502 498 CURVE",
"502 507 LINE",
"500 641 OFFCURVE",
"419 711 OFFCURVE",
"266 711 CURVE",
"112 711 OFFCURVE",
"32 650 OFFCURVE",
"32 516 CURVE",
"32 507 LINE",
"33 344 OFFCURVE",
"213 337 OFFCURVE",
"266 337 CURVE SMOOTH"
);
},
{
closed = 1;
nodes = (
"240 452 OFFCURVE",
"223 468 OFFCURVE",
"223 493 CURVE SMOOTH",
"223 537 LINE SMOOTH",
"223 562 OFFCURVE",
"240 578 OFFCURVE",
"266 578 CURVE SMOOTH",
"292 578 OFFCURVE",
"310 562 OFFCURVE",
"310 537 CURVE SMOOTH",
"310 493 LINE SMOOTH",
"310 468 OFFCURVE",
"292 452 OFFCURVE",
"266 452 CURVE SMOOTH"
);
},
{
closed = 1;
nodes = (
"441 -5 OFFCURVE",
"522 77 OFFCURVE",
"522 202 CURVE",
"522 231 LINE",
"522 324 OFFCURVE",
"431 455 OFFCURVE",
"267 401 CURVE",
"109 455 OFFCURVE",
"12 316 OFFCURVE",
"12 231 CURVE",
"12 202 LINE",
"13 69 OFFCURVE",
"99 -5 OFFCURVE",
"266 -5 CURVE SMOOTH"
);
},
{
closed = 1;
nodes = (
"240 143 OFFCURVE",
"223 159 OFFCURVE",
"223 184 CURVE SMOOTH",
"223 262 LINE SMOOTH",
"223 287 OFFCURVE",
"240 303 OFFCURVE",
"266 303 CURVE",
"292 303 OFFCURVE",
"310 287 OFFCURVE",
"310 262 CURVE SMOOTH",
"310 184 LINE SMOOTH",
"310 159 OFFCURVE",
"292 143 OFFCURVE",
"266 143 CURVE SMOOTH"
);
}
);
width = 534;
},
{
associatedMasterId = "4F25946F-63AC-42D6-8D55-01CF6A99025B";
layerId = "9541491C-EA7C-4850-9E65-38E203544E44";
name = "Medium {91,100}";
paths = (
{
closed = 1;
nodes = (
"372 344 OFFCURVE",
"442 407 OFFCURVE",
"442 514 CURVE SMOOTH",
"442 532 LINE SMOOTH",
"442 643 OFFCURVE",
"372 709 OFFCURVE",
"254 709 CURVE SMOOTH",
"135 709 OFFCURVE",
"65 645 OFFCURVE",
"65 536 CURVE SMOOTH",
"65 517 LINE SMOOTH",
"66 408 OFFCURVE",
"136 344 OFFCURVE",
"254 344 CURVE SMOOTH"
);
},
{
closed = 1;
nodes = (
"193 409 OFFCURVE",
"152 450 OFFCURVE",
"152 511 CURVE SMOOTH",
"152 540 LINE SMOOTH",
"152 601 OFFCURVE",
"193 642 OFFCURVE",
"254 642 CURVE SMOOTH",
"315 642 OFFCURVE",
"356 601 OFFCURVE",
"356 540 CURVE SMOOTH",
"356 511 LINE SMOOTH",
"356 450 OFFCURVE",
"315 409 OFFCURVE",
"254 409 CURVE SMOOTH"
);
},
{
closed = 1;
nodes = (
"377 -13 OFFCURVE",
"450 53 OFFCURVE",
"450 164 CURVE SMOOTH",
"450 227 LINE SMOOTH",
"450 350 OFFCURVE",
"377 410 OFFCURVE",
"254 390 CURVE SMOOTH",
"131 411 OFFCURVE",
"58 350 OFFCURVE",
"58 227 CURVE SMOOTH",
"58 164 LINE SMOOTH",
"58 53 OFFCURVE",
"131 -13 OFFCURVE",
"254 -13 CURVE SMOOTH"
);
},
{
closed = 1;
nodes = (
"193 61 OFFCURVE",
"152 102 OFFCURVE",
"152 163 CURVE SMOOTH",
"152 242 LINE SMOOTH",
"152 303 OFFCURVE",
"193 344 OFFCURVE",
"254 344 CURVE SMOOTH",
"315 344 OFFCURVE",
"356 303 OFFCURVE",
"356 242 CURVE SMOOTH",
"356 163 LINE SMOOTH",
"356 102 OFFCURVE",
"315 61 OFFCURVE",
"254 61 CURVE SMOOTH"
);
}
);
width = 508;
}
);
unicode = 0038;
},
{
color = 1;
glyphname = colon;
lastChange = "2016-10-18 03:01:12 +0000";
layers = (
{
layerId = "262880E7-CFE1-4BDA-902E-E24798F3240A";
paths = (
{
closed = 1;
nodes = (
"154 37 OFFCURVE",
"173 55 OFFCURVE",
"173 78 CURVE SMOOTH",
"173 100 OFFCURVE",
"154 118 OFFCURVE",
"132 118 CURVE SMOOTH",
"110 118 OFFCURVE",
"91 100 OFFCURVE",
"91 78 CURVE SMOOTH",
"91 55 OFFCURVE",
"109 37 OFFCURVE",
"132 37 CURVE SMOOTH"
);
},
{
closed = 1;
nodes = (
"154 350 OFFCURVE",
"173 368 OFFCURVE",
"173 391 CURVE SMOOTH",
"173 413 OFFCURVE",
"154 431 OFFCURVE",
"132 431 CURVE SMOOTH",
"110 431 OFFCURVE",
"91 413 OFFCURVE",
"91 391 CURVE SMOOTH",
"91 368 OFFCURVE",
"109 350 OFFCURVE",
"132 350 CURVE SMOOTH"
);
}
);
width = 263;
},
{
layerId = "4F25946F-63AC-42D6-8D55-01CF6A99025B";
paths = (
{
closed = 1;
nodes = (
"186 -6 OFFCURVE",
"235 40 OFFCURVE",
"235 99 CURVE",
"235 156 OFFCURVE",
"186 202 OFFCURVE",
"129 202 CURVE SMOOTH",
"72 202 OFFCURVE",
"23 156 OFFCURVE",
"23 99 CURVE SMOOTH",
"23 40 OFFCURVE",
"70 -6 OFFCURVE",
"129 -6 CURVE SMOOTH"
);
},
{
closed = 1;
nodes = (
"186 288 OFFCURVE",
"235 334 OFFCURVE",
"235 393 CURVE",
"235 450 OFFCURVE",
"186 496 OFFCURVE",
"129 496 CURVE SMOOTH",
"72 496 OFFCURVE",
"23 450 OFFCURVE",
"23 393 CURVE SMOOTH",
"23 334 OFFCURVE",
"70 288 OFFCURVE",
"129 288 CURVE SMOOTH"
);
}
);
width = 258;
}
);
unicode = 003A;
},
{
color = 1;
glyphname = comma;
lastChange = "2016-10-18 03:01:13 +0000";
layers = (
{
layerId = "262880E7-CFE1-4BDA-902E-E24798F3240A";
paths = (
{
closed = 1;
nodes = (
"163 153 LINE",
"137 153 LINE",
"87 -66 LINE",
"108 -66 LINE"
);
}
);
width = 249;
},
{
layerId = "4F25946F-63AC-42D6-8D55-01CF6A99025B";
paths = (
{
closed = 1;
nodes = (
"241 143 LINE",
"61 142 LINE",
"42 -86 LINE",
"190 -86 LINE"
);
}
);
width = 268;
}
);
unicode = 002C;
},
{
color = 1;
glyphname = exclam;
lastChange = "2016-10-18 03:01:13 +0000";
layers = (
{
layerId = "262880E7-CFE1-4BDA-902E-E24798F3240A";
paths = (
{
closed = 1;
nodes = (
"135 220 LINE",
"135 700 LINE",
"113 700 LINE",
"113 220 LINE"
);
},
{
closed = 1;
nodes = (
"143 5 OFFCURVE",
"162 23 OFFCURVE",
"162 46 CURVE SMOOTH",
"162 68 OFFCURVE",
"143 86 OFFCURVE",
"121 86 CURVE SMOOTH",
"99 86 OFFCURVE",
"80 68 OFFCURVE",
"80 46 CURVE SMOOTH",
"80 23 OFFCURVE",
"98 5 OFFCURVE",
"121 5 CURVE SMOOTH"
);
}
);
width = 247;
},
{
layerId = "4F25946F-63AC-42D6-8D55-01CF6A99025B";
paths = (
{
closed = 1;
nodes = (
"212 250 LINE",
"242 700 LINE",
"34 700 LINE",
"64 250 LINE"
);
},
{
closed = 1;
nodes = (
"193 -6 OFFCURVE",
"242 40 OFFCURVE",
"242 99 CURVE",
"242 156 OFFCURVE",
"193 202 OFFCURVE",
"136 202 CURVE SMOOTH",
"79 202 OFFCURVE",
"30 156 OFFCURVE",
"30 99 CURVE SMOOTH",
"30 40 OFFCURVE",
"77 -6 OFFCURVE",
"136 -6 CURVE SMOOTH"
);
}
);
width = 275;
}
);
unicode = 0021;
},
{
color = 1;
glyphname = period;
lastChange = "2016-10-18 03:01:12 +0000";
layers = (
{
layerId = "262880E7-CFE1-4BDA-902E-E24798F3240A";
paths = (
{
closed = 1;
nodes = (
"163 5 OFFCURVE",
"182 23 OFFCURVE",
"182 46 CURVE SMOOTH",
"182 68 OFFCURVE",
"163 86 OFFCURVE",
"141 86 CURVE SMOOTH",
"119 86 OFFCURVE",
"100 68 OFFCURVE",
"100 46 CURVE SMOOTH",
"100 23 OFFCURVE",
"118 5 OFFCURVE",
"141 5 CURVE SMOOTH"
);
}
);
width = 282;
},
{
layerId = "4F25946F-63AC-42D6-8D55-01CF6A99025B";
paths = (
{
closed = 1;
nodes = (
"192 -6 OFFCURVE",
"241 40 OFFCURVE",
"241 99 CURVE",
"241 156 OFFCURVE",
"192 202 OFFCURVE",
"135 202 CURVE SMOOTH",
"78 202 OFFCURVE",
"29 156 OFFCURVE",
"29 99 CURVE SMOOTH",
"29 40 OFFCURVE",
"76 -6 OFFCURVE",
"135 -6 CURVE SMOOTH"
);
}
);
width = 270;
}
);
unicode = 002E;
},
{
color = 1;
glyphname = question;
lastChange = "2016-10-18 03:01:13 +0000";
layers = (
{
layerId = "4F25946F-63AC-42D6-8D55-01CF6A99025B";
paths = (
{
closed = 1;
nodes = (
"349 223 LINE",
"349 238 OFFCURVE",
"349 256 OFFCURVE",
"349 262 CURVE SMOOTH",
"349 330 OFFCURVE",
"505 329 OFFCURVE",
"505 494 CURVE SMOOTH",
"505 629 OFFCURVE",
"407 710 OFFCURVE",
"261 710 CURVE SMOOTH",
"106 710 OFFCURVE",
"3 618 OFFCURVE",
"3 479 CURVE SMOOTH",
"3 474 LINE",
"215 464 LINE",
"215 479 LINE SMOOTH",
"215 502 OFFCURVE",
"231 518 OFFCURVE",
"255 518 CURVE SMOOTH",
"276 518 OFFCURVE",
"290 506 OFFCURVE",
"290 487 CURVE SMOOTH",
"290 424 OFFCURVE",
"145 423 OFFCURVE",
"145 290 CURVE SMOOTH",
"145 268 OFFCURVE",
"145 261 OFFCURVE",
"145 224 CURVE"
);
},
{
closed = 1;
nodes = (
"309 -6 OFFCURVE",
"358 40 OFFCURVE",
"358 99 CURVE",
"358 156 OFFCURVE",
"309 202 OFFCURVE",
"252 202 CURVE SMOOTH",
"195 202 OFFCURVE",
"146 156 OFFCURVE",
"146 99 CURVE SMOOTH",
"146 40 OFFCURVE",
"193 -6 OFFCURVE",
"252 -6 CURVE SMOOTH"
);
}
);
width = 513;
},
{
layerId = "262880E7-CFE1-4BDA-902E-E24798F3240A";
paths = (
{
closed = 1;
nodes = (
"258 239 LINE",
"228 243 OFFCURVE",
"213 254 OFFCURVE",
"213 275 CURVE SMOOTH",
"213 346 OFFCURVE",
"394 378 OFFCURVE",
"394 546 CURVE SMOOTH",
"394 645 OFFCURVE",
"331 709 OFFCURVE",
"237 709 CURVE SMOOTH",
"142 709 OFFCURVE",
"78 645 OFFCURVE",
"78 550 CURVE SMOOTH",
"78 500 LINE",
"100 500 LINE",
"100 550 LINE SMOOTH",
"100 633 OFFCURVE",
"155 688 OFFCURVE",
"237 688 CURVE SMOOTH",
"318 688 OFFCURVE",
"372 633 OFFCURVE",
"372 549 CURVE SMOOTH",
"372 395 OFFCURVE",
"189 364 OFFCURVE",
"189 271 CURVE SMOOTH",
"189 235 OFFCURVE",
"217 213 OFFCURVE",
"258 215 CURVE"
);
},
{
closed = 1;
nodes = (
"244 5 OFFCURVE",
"263 23 OFFCURVE",
"263 46 CURVE SMOOTH",
"263 68 OFFCURVE",
"244 86 OFFCURVE",
"222 86 CURVE SMOOTH",
"200 86 OFFCURVE",
"181 68 OFFCURVE",
"181 46 CURVE SMOOTH",
"181 23 OFFCURVE",
"199 5 OFFCURVE",
"222 5 CURVE SMOOTH"
);
}
);
width = 473;
},
{
associatedMasterId = "4F25946F-63AC-42D6-8D55-01CF6A99025B";
layerId = "E56F6CC4-F9B5-46E1-BC01-FC7B34A3882B";
name = "DemiBold {119,100}";
paths = (
{
closed = 1;
nodes = (
"344 261 LINE",
"333 262 OFFCURVE",
"324 261 OFFCURVE",
"324 276 CURVE SMOOTH",
"324 341 OFFCURVE",
"489 355 OFFCURVE",
"489 519 CURVE SMOOTH",
"489 634 OFFCURVE",
"409 710 OFFCURVE",
"286 710 CURVE SMOOTH",
"161 710 OFFCURVE",
"74 630 OFFCURVE",
"74 512 CURVE SMOOTH",
"74 486 LINE",
"198 481 LINE",
"198 512 LINE SMOOTH",
"198 562 OFFCURVE",
"231 597 OFFCURVE",
"283 597 CURVE SMOOTH",
"333 597 OFFCURVE",
"364 565 OFFCURVE",
"364 516 CURVE SMOOTH",
"364 401 OFFCURVE",
"194 408 OFFCURVE",
"194 270 CURVE SMOOTH",
"194 214 OFFCURVE",
"222 166 OFFCURVE",
"332 182 CURVE"
);
},
{
closed = 1;
nodes = (
"313 -1 OFFCURVE",
"348 32 OFFCURVE",
"348 74 CURVE SMOOTH",
"348 115 OFFCURVE",
"313 148 OFFCURVE",
"272 148 CURVE SMOOTH",
"232 148 OFFCURVE",
"197 115 OFFCURVE",
"197 74 CURVE SMOOTH",
"197 32 OFFCURVE",
"230 -1 OFFCURVE",
"272 -1 CURVE SMOOTH"
);
}
);
width = 539;
}
);
unicode = 003F;
},
{
color = 1;
glyphname = quotedbl;
lastChange = "2016-10-18 03:01:13 +0000";
layers = (
{
layerId = "262880E7-CFE1-4BDA-902E-E24798F3240A";
paths = (
{
closed = 1;
nodes = (
"241 501 LINE",
"241 693 LINE",
"219 693 LINE",
"219 501 LINE"
);
},
{
closed = 1;
nodes = (
"131 501 LINE",
"131 693 LINE",
"109 693 LINE",
"109 501 LINE"
);
}
);
width = 350;
},
{
layerId = "4F25946F-63AC-42D6-8D55-01CF6A99025B";
paths = (
{
closed = 1;
nodes = (
"508 481 LINE",
"518 693 LINE",
"316 693 LINE",
"324 481 LINE"
);
},
{
closed = 1;
nodes = (
"238 481 LINE",
"248 693 LINE",
"46 693 LINE",
"56 481 LINE"
);
}
);
width = 564;
}
);
unicode = 0022;
},
{
color = 1;
glyphname = quotesingle;
lastChange = "2016-10-18 03:01:13 +0000";
layers = (
{
layerId = "262880E7-CFE1-4BDA-902E-E24798F3240A";
paths = (
{
closed = 1;
nodes = (
"131 697 LINE",
"109 697 LINE",
"109 507 LINE",
"131 507 LINE"
);
}
);
width = 240;
},
{
layerId = "4F25946F-63AC-42D6-8D55-01CF6A99025B";
paths = (
{
closed = 1;
nodes = (
"230 699 LINE",
"46 699 LINE",
"56 452 LINE",
"220 452 LINE"
);
}
);
width = 276;
}
);
unicode = 0027;
},
{
color = 1;
glyphname = semicolon;
lastChange = "2016-10-18 03:01:13 +0000";
layers = (
{
layerId = "262880E7-CFE1-4BDA-902E-E24798F3240A";
paths = (
{
closed = 1;
nodes = (
"151 370 OFFCURVE",
"170 388 OFFCURVE",
"170 411 CURVE",
"170 433 OFFCURVE",
"151 451 OFFCURVE",
"129 451 CURVE SMOOTH",
"107 451 OFFCURVE",
"88 433 OFFCURVE",
"88 411 CURVE SMOOTH",
"88 388 OFFCURVE",
"106 370 OFFCURVE",
"129 370 CURVE SMOOTH"
);
},
{
closed = 1;
nodes = (
"109 -60 LINE",
"145 147 LINE",
"123 147 LINE",
"88 -60 LINE"
);
}
);
width = 251;
},
{
layerId = "4F25946F-63AC-42D6-8D55-01CF6A99025B";
paths = (
{
closed = 1;
nodes = (
"192 288 OFFCURVE",
"241 334 OFFCURVE",
"241 393 CURVE",
"241 450 OFFCURVE",
"192 496 OFFCURVE",
"135 496 CURVE SMOOTH",
"78 496 OFFCURVE",
"29 450 OFFCURVE",
"29 393 CURVE SMOOTH",
"29 334 OFFCURVE",
"76 288 OFFCURVE",
"135 288 CURVE SMOOTH"
);
},
{
closed = 1;
nodes = (
"176 -46 LINE",
"227 183 LINE",
"57 182 LINE",
"38 -46 LINE"
);
}
);
width = 264;
}
);
unicode = 003B;
},
{
color = 1;
glyphname = slash;
lastChange = "2016-10-18 03:01:12 +0000";
layers = (
{
layerId = "262880E7-CFE1-4BDA-902E-E24798F3240A";
paths = (
{
closed = 1;
nodes = (
"67 0 LINE",
"205 700 LINE",
"183 700 LINE",
"45 0 LINE"
);
}
);
width = 250;
},
{
layerId = "4F25946F-63AC-42D6-8D55-01CF6A99025B";
paths = (
{
closed = 1;
nodes = (
"192 0 LINE",
"330 700 LINE",
"128 700 LINE",
"-10 0 LINE"
);
}
);
width = 320;
}
);
unicode = 002F;
},
{
color = 1;
glyphname = quotesingle.alt;
lastChange = "2016-10-18 03:01:12 +0000";
layers = (
{
layerId = "262880E7-CFE1-4BDA-902E-E24798F3240A";
paths = (
{
closed = 1;
nodes = (
"131 699 LINE",
"109 699 LINE",
"109 507 LINE",
"131 507 LINE"
);
}
);
width = 240;
},
{
layerId = "4F25946F-63AC-42D6-8D55-01CF6A99025B";
paths = (
{
closed = 1;
nodes = (
"240 603 LINE",
"56 603 LINE",
"47 344 LINE",
"178 344 LINE"
);
}
);
width = 262;
}
);
},
{
color = 1;
glyphname = emdash;
lastChange = "2016-10-18 03:01:13 +0000";
layers = (
{
layerId = "262880E7-CFE1-4BDA-902E-E24798F3240A";
paths = (
{
closed = 1;
nodes = (
"486 251 LINE",
"486 272 LINE",
"78 272 LINE",
"78 251 LINE"
);
}
);
width = 564;
},
{
layerId = "4F25946F-63AC-42D6-8D55-01CF6A99025B";
paths = (
{
closed = 1;
nodes = (
"636 180 LINE",
"636 368 LINE",
"36 368 LINE",
"36 180 LINE"
);
}
);
width = 672;
}
);
unicode = 2014;
},
{
color = 1;
glyphname = hyphen;
lastChange = "2016-10-18 03:01:12 +0000";
layers = (
{
layerId = "4F25946F-63AC-42D6-8D55-01CF6A99025B";
paths = (
{
closed = 1;
nodes = (
"316 180 LINE",
"316 368 LINE",
"36 368 LINE",
"36 180 LINE"
);
}
);
width = 352;
},
{
layerId = "262880E7-CFE1-4BDA-902E-E24798F3240A";
paths = (
{
closed = 1;
nodes = (
"336 251 LINE",
"336 272 LINE",
"78 272 LINE",
"78 251 LINE"
);
}
);
width = 414;
}
);
unicode = 002D;
},
{
color = 1;
glyphname = dollar;
lastChange = "2016-10-18 03:01:12 +0000";
layers = (
{
layerId = "4F25946F-63AC-42D6-8D55-01CF6A99025B";
paths = (
{
closed = 1;
nodes = (
"438 -10 OFFCURVE",
"532 74 OFFCURVE",
"532 200 CURVE SMOOTH",
"532 312 OFFCURVE",
"458 381 OFFCURVE",
"345 425 CURVE SMOOTH",
"299 443 OFFCURVE",
"246 456 OFFCURVE",
"246 489 CURVE SMOOTH",
"246 503 OFFCURVE",
"256 518 OFFCURVE",
"280 518 CURVE SMOOTH",
"306 518 OFFCURVE",
"321 501 OFFCURVE",
"321 479 CURVE SMOOTH",
"321 464 LINE",
"533 474 LINE",
"533 479 LINE SMOOTH",
"533 617 OFFCURVE",
"426 710 OFFCURVE",
"274 710 CURVE SMOOTH",
"127 710 OFFCURVE",
"31 624 OFFCURVE",
"31 498 CURVE SMOOTH",
"31 389 OFFCURVE",
"104 318 OFFCURVE",
"218 275 CURVE SMOOTH",
"260 259 OFFCURVE",
"316 245 OFFCURVE",
"316 214 CURVE SMOOTH",
"316 201 OFFCURVE",
"307 182 OFFCURVE",
"281 182 CURVE SMOOTH",
"257 182 OFFCURVE",
"242 199 OFFCURVE",
"242 231 CURVE SMOOTH",
"242 236 LINE",
"19 226 LINE",
"19 221 LINE SMOOTH",
"19 83 OFFCURVE",
"125 -10 OFFCURVE",
"285 -10 CURVE SMOOTH"
);
},
{
closed = 1;
nodes = (
"356 -53 LINE",
"356 93 LINE",
"235 93 LINE",
"235 -53 LINE"
);
},
{
closed = 1;
nodes = (
"353 599 LINE",
"353 745 LINE",
"232 745 LINE",
"232 599 LINE"
);
}
);
width = 556;
},
{
layerId = "262880E7-CFE1-4BDA-902E-E24798F3240A";
paths = (
{
closed = 1;
nodes = (
"355 -9 OFFCURVE",
"419 50 OFFCURVE",
"419 149 CURVE SMOOTH",
"419 255 OFFCURVE",
"346 307 OFFCURVE",
"264 361 CURVE SMOOTH",
"183 414 OFFCURVE",
"119 459 OFFCURVE",
"119 552 CURVE SMOOTH",
"119 636 OFFCURVE",
"171 690 OFFCURVE",
"255 690 CURVE SMOOTH",
"339 690 OFFCURVE",
"391 637 OFFCURVE",
"391 550 CURVE SMOOTH",
"391 500 LINE",
"413 500 LINE",
"413 550 LINE SMOOTH",
"413 650 OFFCURVE",
"353 709 OFFCURVE",
"255 709 CURVE SMOOTH",
"157 709 OFFCURVE",
"97 649 OFFCURVE",
"97 553 CURVE SMOOTH",
"97 446 OFFCURVE",
"172 394 OFFCURVE",
"250 342 CURVE SMOOTH",
"327 291 OFFCURVE",
"397 244 OFFCURVE",
"397 148 CURVE SMOOTH",
"397 63 OFFCURVE",
"341 11 OFFCURVE",
"259 11 CURVE SMOOTH",
"171 11 OFFCURVE",
"125 64 OFFCURVE",
"125 150 CURVE SMOOTH",
"125 200 LINE",
"103 200 LINE",
"103 150 LINE SMOOTH",
"103 50 OFFCURVE",
"158 -9 OFFCURVE",
"260 -9 CURVE SMOOTH"
);
},
{
closed = 1;
nodes = (
"265 -88 LINE",
"265 2 LINE",
"242 2 LINE",
"242 -88 LINE"
);
},
{
closed = 1;
nodes = (
"265 702 LINE",
"265 792 LINE",
"242 792 LINE",
"242 702 LINE"
);
}
);
width = 516;
},
{
associatedMasterId = "4F25946F-63AC-42D6-8D55-01CF6A99025B";
layerId = "E869EA52-1DFA-43F8-82AD-AF9382669512";
name = "DemiBold{119,100}";
paths = (
{
closed = 1;
nodes = (
"387 -10 OFFCURVE",
"467 63 OFFCURVE",
"467 176 CURVE SMOOTH",
"467 286 OFFCURVE",
"394 347 OFFCURVE",
"295 395 CURVE SMOOTH",
"233 430 OFFCURVE",
"175 457 OFFCURVE",
"175 518 CURVE SMOOTH",
"175 565 OFFCURVE",
"204 598 OFFCURVE",
"256 598 CURVE SMOOTH",
"309 598 OFFCURVE",
"341 564 OFFCURVE",
"341 512 CURVE SMOOTH",
"341 481 LINE",
"465 486 LINE",
"465 512 LINE SMOOTH",
"465 632 OFFCURVE",
"380 710 OFFCURVE",
"253 710 CURVE SMOOTH",
"129 710 OFFCURVE",
"49 636 OFFCURVE",
"49 524 CURVE SMOOTH",
"49 415 OFFCURVE",
"123 353 OFFCURVE",
"221 306 CURVE SMOOTH",
"279 274 OFFCURVE",
"341 245 OFFCURVE",
"341 183 CURVE SMOOTH",
"341 137 OFFCURVE",
"311 103 OFFCURVE",
"259 103 CURVE SMOOTH",
"205 103 OFFCURVE",
"176 136 OFFCURVE",
"176 193 CURVE SMOOTH",
"176 219 LINE",
"46 214 LINE",
"46 188 LINE SMOOTH",
"46 68 OFFCURVE",
"128 -10 OFFCURVE",
"261 -10 CURVE SMOOTH"
);
},
{
closed = 1;
nodes = (
"306 -80 LINE",
"306 40 LINE",
"203 40 LINE",
"203 -80 LINE"
);
},
{
closed = 1;
nodes = (
"309 652 LINE",
"309 777 LINE",
"205 777 LINE",
"205 652 LINE"
);
}
);
width = 513;
}
);
unicode = 0024;
},
{
color = 1;
glyphname = at;
lastChange = "2016-10-18 03:01:12 +0000";
layers = (
{
layerId = "262880E7-CFE1-4BDA-902E-E24798F3240A";
paths = (
{
closed = 1;
nodes = (
"649 -68 OFFCURVE",
"811 92 OFFCURVE",
"811 290 CURVE SMOOTH",
"811 488 OFFCURVE",
"649 648 OFFCURVE",
"450 648 CURVE SMOOTH",
"251 648 OFFCURVE",
"89 488 OFFCURVE",
"89 290 CURVE SMOOTH",
"89 92 OFFCURVE",
"251 -68 OFFCURVE",
"450 -68 CURVE SMOOTH"
);
},
{
closed = 1;
nodes = (
"263 -50 OFFCURVE",
"111 102 OFFCURVE",
"111 290 CURVE SMOOTH",
"111 478 OFFCURVE",
"263 630 OFFCURVE",
"450 630 CURVE SMOOTH",
"637 630 OFFCURVE",
"789 478 OFFCURVE",
"789 290 CURVE SMOOTH",
"789 102 OFFCURVE",
"637 -50 OFFCURVE",
"450 -50 CURVE SMOOTH"
);
},
{
closed = 1;
nodes = (
"516 105 OFFCURVE",
"560 152 OFFCURVE",
"560 227 CURVE SMOOTH",
"560 369 LINE SMOOTH",
"560 444 OFFCURVE",
"516 491 OFFCURVE",
"444 491 CURVE SMOOTH",
"371 491 OFFCURVE",
"323 445 OFFCURVE",
"323 370 CURVE SMOOTH",
"323 226 LINE SMOOTH",
"323 151 OFFCURVE",
"371 105 OFFCURVE",
"444 105 CURVE SMOOTH"
);
},
{
closed = 1;
nodes = (
"379 121 OFFCURVE",
"340 161 OFFCURVE",
"340 226 CURVE SMOOTH",
"340 370 LINE SMOOTH",
"340 435 OFFCURVE",
"381 475 OFFCURVE",
"444 475 CURVE SMOOTH",
"508 475 OFFCURVE",
"549 435 OFFCURVE",
"549 370 CURVE SMOOTH",
"549 226 LINE SMOOTH",
"549 161 OFFCURVE",
"510 121 OFFCURVE",
"444 121 CURVE SMOOTH"
);
},
{
closed = 1;
nodes = (
"565 110 LINE",
"565 486 LINE",
"549 486 LINE",
"549 110 LINE"
);
}
);
width = 900;
},
{
layerId = "4F25946F-63AC-42D6-8D55-01CF6A99025B";
paths = (
{
closed = 1;
nodes = (
"575 -53 OFFCURVE",
"737 108 OFFCURVE",
"737 306 CURVE SMOOTH",
"737 504 OFFCURVE",
"575 665 OFFCURVE",
"377 665 CURVE SMOOTH",
"179 665 OFFCURVE",
"17 504 OFFCURVE",
"17 306 CURVE SMOOTH",
"17 108 OFFCURVE",
"179 -53 OFFCURVE",
"377 -53 CURVE SMOOTH"
);
},
{
closed = 1;
nodes = (
"242 69 OFFCURVE",
"142 170 OFFCURVE",
"142 306 CURVE SMOOTH",
"142 442 OFFCURVE",
"242 543 OFFCURVE",
"377 543 CURVE SMOOTH",
"512 543 OFFCURVE",
"612 442 OFFCURVE",
"612 306 CURVE SMOOTH",
"612 170 OFFCURVE",
"512 69 OFFCURVE",
"377 69 CURVE SMOOTH"
);
},
{
closed = 1;
nodes = (
"398 176 OFFCURVE",
"441 236 OFFCURVE",
"441 283 CURVE SMOOTH",
"441 290 LINE SMOOTH",
"441 295 OFFCURVE",
"433 419 OFFCURVE",
"341 419 CURVE",
"286 419 OFFCURVE",
"253 392 OFFCURVE",
"253 345 CURVE SMOOTH",
"253 255 LINE SMOOTH",
"253 213 OFFCURVE",
"278 176 OFFCURVE",
"334 176 CURVE SMOOTH"
);
},
{
closed = 1;
nodes = (
"359 258 OFFCURVE",
"351 265 OFFCURVE",
"351 277 CURVE SMOOTH",
"351 320 LINE SMOOTH",
"351 332 OFFCURVE",
"359 340 OFFCURVE",
"371 340 CURVE SMOOTH",
"383 340 OFFCURVE",
"392 332 OFFCURVE",
"392 320 CURVE SMOOTH",
"392 277 LINE SMOOTH",
"392 265 OFFCURVE",
"383 258 OFFCURVE",
"371 258 CURVE SMOOTH"
);
},
{
closed = 1;
nodes = (
"490 180 LINE",
"490 416 LINE",
"392 416 LINE",
"392 180 LINE"
);
}
);
width = 754;
}
);
unicode = 0040;
},
{
color = 1;
glyphname = copyright;
lastChange = "2016-10-18 03:01:13 +0000";
layers = (
{
layerId = "262880E7-CFE1-4BDA-902E-E24798F3240A";
paths = (
{
closed = 1;
nodes = (
"649 -68 OFFCURVE",
"811 92 OFFCURVE",
"811 290 CURVE SMOOTH",
"811 488 OFFCURVE",
"649 648 OFFCURVE",
"450 648 CURVE SMOOTH",
"251 648 OFFCURVE",
"89 488 OFFCURVE",
"89 290 CURVE SMOOTH",
"89 92 OFFCURVE",
"251 -68 OFFCURVE",
"450 -68 CURVE SMOOTH"
);
},
{
closed = 1;
nodes = (
"263 -50 OFFCURVE",
"111 102 OFFCURVE",
"111 290 CURVE SMOOTH",
"111 478 OFFCURVE",
"263 630 OFFCURVE",
"450 630 CURVE SMOOTH",
"637 630 OFFCURVE",
"789 478 OFFCURVE",
"789 290 CURVE SMOOTH",
"789 102 OFFCURVE",
"637 -50 OFFCURVE",
"450 -50 CURVE SMOOTH"
);
},
{
closed = 1;
nodes = (
"522 103 OFFCURVE",
"568 148 OFFCURVE",
"568 223 CURVE SMOOTH",
"568 225 LINE",
"552 225 LINE",
"552 223 LINE SMOOTH",
"552 158 OFFCURVE",
"513 118 OFFCURVE",
"447 118 CURVE SMOOTH",
"382 118 OFFCURVE",
"343 158 OFFCURVE",
"343 223 CURVE SMOOTH",
"343 367 LINE SMOOTH",
"343 433 OFFCURVE",
"384 472 OFFCURVE",
"447 472 CURVE SMOOTH",
"511 472 OFFCURVE",
"552 433 OFFCURVE",
"552 367 CURVE SMOOTH",
"552 366 LINE",
"568 366 LINE",
"568 367 LINE SMOOTH",
"568 442 OFFCURVE",
"522 487 OFFCURVE",
"447 487 CURVE SMOOTH",
"373 487 OFFCURVE",
"326 442 OFFCURVE",
"326 367 CURVE SMOOTH",
"326 223 LINE SMOOTH",
"326 148 OFFCURVE",
"373 103 OFFCURVE",
"447 103 CURVE SMOOTH"
);
}
);
width = 900;
},
{
layerId = "4F25946F-63AC-42D6-8D55-01CF6A99025B";
paths = (
{
closed = 1;
nodes = (
"575 -53 OFFCURVE",
"737 108 OFFCURVE",
"737 306 CURVE SMOOTH",
"737 504 OFFCURVE",
"575 665 OFFCURVE",
"377 665 CURVE SMOOTH",
"179 665 OFFCURVE",
"17 504 OFFCURVE",
"17 306 CURVE SMOOTH",
"17 108 OFFCURVE",
"179 -53 OFFCURVE",
"377 -53 CURVE SMOOTH"
);
},
{
closed = 1;
nodes = (
"242 69 OFFCURVE",
"142 170 OFFCURVE",
"142 306 CURVE SMOOTH",
"142 442 OFFCURVE",
"242 543 OFFCURVE",
"377 543 CURVE SMOOTH",
"512 543 OFFCURVE",
"612 442 OFFCURVE",
"612 306 CURVE SMOOTH",
"612 170 OFFCURVE",
"512 69 OFFCURVE",
"377 69 CURVE SMOOTH"
);
},
{
closed = 1;
nodes = (
"449 170 OFFCURVE",
"497 214 OFFCURVE",
"502 290 CURVE",
"502 291 LINE",
"397 291 LINE",
"397 277 LINE SMOOTH",
"397 265 OFFCURVE",
"388 257 OFFCURVE",
"375 257 CURVE SMOOTH",
"362 257 OFFCURVE",
"353 265 OFFCURVE",
"353 277 CURVE",
"353 323 LINE",
"353 336 OFFCURVE",
"362 344 OFFCURVE",
"375 344 CURVE SMOOTH",
"388 344 OFFCURVE",
"397 336 OFFCURVE",
"397 323 CURVE",
"397 313 LINE",
"502 313 LINE",
"502 314 LINE",
"501 386 OFFCURVE",
"454 428 OFFCURVE",
"374 428 CURVE SMOOTH",
"294 428 OFFCURVE",
"247 382 OFFCURVE",
"247 302 CURVE SMOOTH",
"247 298 LINE SMOOTH",
"247 217 OFFCURVE",
"294 170 OFFCURVE",
"374 170 CURVE SMOOTH"
);
}
);
width = 754;
}
);
unicode = 00A9;
},
{
color = 1;
glyphname = registered;
lastChange = "2016-10-18 03:01:12 +0000";
layers = (
{
layerId = "262880E7-CFE1-4BDA-902E-E24798F3240A";
paths = (
{
closed = 1;
nodes = (
"649 -68 OFFCURVE",
"811 92 OFFCURVE",
"811 290 CURVE SMOOTH",
"811 488 OFFCURVE",
"649 648 OFFCURVE",
"450 648 CURVE SMOOTH",
"251 648 OFFCURVE",
"89 488 OFFCURVE",
"89 290 CURVE SMOOTH",
"89 92 OFFCURVE",
"251 -68 OFFCURVE",
"450 -68 CURVE SMOOTH"
);
},
{
closed = 1;
nodes = (
"263 -50 OFFCURVE",
"111 102 OFFCURVE",
"111 290 CURVE SMOOTH",
"111 478 OFFCURVE",
"263 630 OFFCURVE",
"450 630 CURVE SMOOTH",
"637 630 OFFCURVE",
"789 478 OFFCURVE",
"789 290 CURVE SMOOTH",
"789 102 OFFCURVE",
"637 -50 OFFCURVE",
"450 -50 CURVE SMOOTH"
);
},
{
closed = 1;
nodes = (
"389 104 LINE",
"389 488 LINE",
"461 488 LINE SMOOTH",
"517 488 OFFCURVE",
"552 452 OFFCURVE",
"552 393 CURVE SMOOTH",
"552 334 OFFCURVE",
"517 298 OFFCURVE",
"461 298 CURVE SMOOTH",
"386 298 LINE",
"386 286 LINE",
"461 286 LINE SMOOTH",
"524 287 OFFCURVE",
"564 327 OFFCURVE",
"564 393 CURVE SMOOTH",
"564 459 OFFCURVE",
"524 499 OFFCURVE",
"461 499 CURVE SMOOTH",
"376 499 LINE",
"376 104 LINE"
);
},
{
closed = 1;
nodes = (
"538 104 LINE",
"473 296 LINE",
"462 292 LINE",
"525 104 LINE"
);
}
